<?xml version="1.0" standalone="no"?>
<!DOCTYPE svg PUBLIC "-//W3C//DTD SVG 1.1//EN" "http://www.w3.org/Graphics/SVG/1.1/DTD/svg11.dtd" >
<svg xmlns="http://www.w3.org/2000/svg" xmlns:xlink="http://www.w3.org/1999/xlink" version="1.1">
<metadata>
Created by FontForge 20201107 at Fri Nov 20 01:02:06 2020
 By 
Heinch Bold (c)Almarkhatype 2020. All Rights Reserved
</metadata>
<defs>
<font id="Heinch-Bold" horiz-adv-x="1113" >
  <font-face 
    font-family="Heinch Bold"
    font-weight="400"
    font-stretch="normal"
    units-per-em="2048"
    panose-1="2 0 5 0 0 0 0 0 0 0"
    ascent="1687"
    descent="-361"
    x-height="740"
    cap-height="740"
    bbox="-53 -314 1723 1036"
    underline-thickness="50"
    underline-position="-100"
    unicode-range="U+001D-2265"
  />
<missing-glyph horiz-adv-x="500" 
 />
    <glyph glyph-name=".notdef" horiz-adv-x="500" 
 />
    <glyph glyph-name="uni0000" horiz-adv-x="0" 
 />
    <glyph glyph-name="uni0000" horiz-adv-x="0" 
 />
    <glyph glyph-name="nonmarkingreturn" horiz-adv-x="682" 
 />
    <glyph glyph-name="space" unicode=" " horiz-adv-x="398" 
 />
    <glyph glyph-name="space" unicode="&#xa0;" horiz-adv-x="398" 
 />
    <glyph glyph-name="exclam" unicode="!" horiz-adv-x="353" 
d="M230 108h-108l-29 632h167zM176 -90q-32 0 -60.5 28.5t-28.5 60.5q0 33 28.5 61.5t60.5 28.5q33 0 60.5 -27.5t29.5 -62.5q0 -32 -28.5 -60.5t-61.5 -28.5z" />
    <glyph glyph-name="quotedbl" unicode="&#x22;" horiz-adv-x="432" 
d="M170 508h-99l-32 278h162zM374 508h-99l-31 278h162z" />
    <glyph glyph-name="numbersign" unicode="#" horiz-adv-x="1111" 
d="M732 -59l-122 42l44 129h-357l-58 -171l-123 42l44 129h-98v130h142l73 216h-98v129h142l58 171l123 -41l-44 -130h357l58 171l122 -41l-43 -130h97v-129h-141l-74 -216h98v-130h-142zM698 242l73 216h-357l-74 -216h358z" />
    <glyph glyph-name="dollar" unicode="$" horiz-adv-x="809" 
d="M419 -113v93l-33 1v-92l-116 1v97q-50 4 -92 31.5t-68 75t-26 110.5v83h129v-83q0 -37 12.5 -51t44.5 -17v140q-41 2 -83.5 24t-72.5 65.5t-30 112.5v29q0 66 31 109.5t74 66t81 25.5v96l115 1v-92l34 -1v92h119v-97q50 -4 92 -32t68 -75t26 -110v-83h-129v83
q0 37 -12.5 51t-44.5 16v-138q41 -3 83.5 -24.5t72.5 -65.5t30 -113v-29q0 -66 -31 -109.5t-74 -66t-81 -25.5v-96zM419 422v141l-34 1v-141zM270 426v132q-28 -2 -42.5 -13t-14.5 -38v-8q0 -35 2 -49.5t11.5 -18.5t31.5 -4zM419 131v142l-34 1v-142zM538 136q29 2 43 13
t14 38v8q0 35 -2 50t-12.5 19t-33.5 4l-9 1v-133z" />
    <glyph glyph-name="percent" unicode="%" horiz-adv-x="1134" 
d="M261 -69l-95 88l706 758l94 -88zM273 303q-55 0 -102 8t-86 42q-30 28 -45 71.5t-15 92.5v47q0 49 15 93q30 85 119 110q42 11 97 11q49 0 94 -8t83 -42q31 -28 46 -71.5t15 -92.5v-47q0 -49 -15 -92.5t-46 -71t-73 -39t-87 -11.5zM273 432q33 0 49 4t25 12t13 22t4 47
v47q0 33 -4 47t-14 23t-30.5 12t-70.5 3q-32 0 -48 -4t-25 -12t-13.5 -22t-4.5 -47v-47q0 -33 4.5 -47t14.5 -23t30.5 -12t69.5 -3zM877 -80q-55 0 -102 8t-86 42q-30 28 -45 71.5t-15 92.5v47q0 49 15 92.5t45 71.5q39 34 86 43q42 7 90 7q57 0 100 -11q88 -25 118 -110
q15 -44 15 -93v-47q0 -49 -15 -92q-42 -122 -206 -122zM877 49q33 0 49 4t25 12t13 22t4 47v47q0 33 -4 47t-13 22t-25 12t-49 4q-49 0 -69.5 -3t-30.5 -12t-14.5 -23t-4.5 -47v-47q0 -33 4.5 -47t14.5 -23t30.5 -12t69.5 -3z" />
    <glyph glyph-name="ampersand" unicode="&#x26;" horiz-adv-x="1019" 
d="M370 258q-79 -15 -113 -24q-34 -10 -41 -22q-5 -6 -5 -35v-33q0 -27 20.5 -40t73.5 -18t164 -5q110 0 156 8q7 1 11 2zM396 394q108 20 159 35.5t62 37.5t11 73t-35 70t-127 19q-123 0 -156.5 -10.5t-43.5 -32t-10 -64.5q0 -30 27.5 -54t112.5 -74zM846 112l119 -74
l-70 -110l-124 79q-38 -34 -121.5 -45t-207.5 -11q-166 0 -243 27q-117 41 -117 166v33q0 154 126 182q-20 13 -50.5 56t-30.5 125q0 110 77.5 164t215.5 54h46q85 0 150 -21t103 -70t38 -127q0 -63 -20 -114q-37 -96 -181 -131l170 -107v103h129v-122q0 -25 -5 -44
q-3 -11 -4 -13z" />
    <glyph glyph-name="quotesingle" unicode="'" horiz-adv-x="303" 
d="M203 508h-99l-31 278h162z" />
    <glyph glyph-name="parenleft" unicode="(" horiz-adv-x="446" 
d="M313 -55q-116 75 -169 178t-53 234v134q0 131 53 234t169 178l70 -109q-91 -57 -127 -125.5t-36 -177.5v-134q0 -109 36 -177.5t127 -125.5z" />
    <glyph glyph-name="parenright" unicode=")" horiz-adv-x="446" 
d="M133 -55l-70 109q91 57 126.5 125.5t35.5 177.5v134q0 109 -35.5 177.5t-126.5 125.5l70 109q116 -75 169 -178t53 -234v-134q0 -131 -53 -234t-169 -178z" />
    <glyph glyph-name="asterisk" unicode="*" horiz-adv-x="448" 
d="M322 526l-33 27v-20h-130v20l-33 -27l-81 101l75 61l-75 61l81 101l33 -27v20h130v-20l33 27l81 -101l-76 -61l76 -61z" />
    <glyph glyph-name="plus" unicode="+" horiz-adv-x="732" 
d="M430 160h-129v212h-247v129h247v209h129v-209h247v-129h-247v-212z" />
    <glyph glyph-name="comma" unicode="," horiz-adv-x="311" 
d="M137 -156h-103l50 278h165z" />
    <glyph glyph-name="hyphen" unicode="-" horiz-adv-x="651" 
d="M625 264h-599v129h599v-129z" />
    <glyph glyph-name="hyphen" unicode="&#xad;" horiz-adv-x="651" 
d="M625 264h-599v129h599v-129z" />
    <glyph glyph-name="period" unicode="." horiz-adv-x="292" 
d="M138 -41q-33 0 -61.5 28.5t-28.5 61.5q0 32 28.5 60.5t61.5 28.5q32 0 60.5 -28.5t28.5 -60.5q0 -33 -28.5 -61.5t-60.5 -28.5z" />
    <glyph glyph-name="slash" unicode="/" horiz-adv-x="698" 
d="M202 -32h-149l450 779h149z" />
    <glyph glyph-name="zero" unicode="0" horiz-adv-x="973" 
d="M514 -44q-70 0 -129 4.5t-108 22t-91 55.5q-49 45 -73.5 116t-24.5 160v91q0 128 45.5 207t128.5 115.5t197 36.5q70 0 128.5 -5t108 -22.5t90.5 -54.5q49 -45 73.5 -116t24.5 -161v-91q0 -128 -45 -206.5t-128.5 -115t-196.5 -36.5zM514 85q88 0 141 19t76.5 69
t23.5 141v91q0 92 -23.5 141.5t-76.5 68.5t-141 19h-55q-141 0 -186 -48q-28 -24 -42 -65.5t-14 -115.5v-91q0 -91 23.5 -140.5t76.5 -69t142 -19.5h55z" />
    <glyph glyph-name="one" unicode="1" horiz-adv-x="460" 
d="M360 -30h-129v651h-173v129h302v-780z" />
    <glyph glyph-name="two" unicode="2" horiz-adv-x="944" 
d="M862 -30h-771v237q0 85 47 132.5t128.5 66.5t184.5 19q98 0 155.5 4.5t91.5 20.5q24 10 30.5 21t6.5 42v34q0 50 -52 69t-179 19q-103 0 -158 -6.5t-89 -27.5q-22 -13 -29.5 -27.5t-7.5 -46.5v-84h-129v84q0 112 90 174.5t270 62.5h53q101 0 182.5 -21.5t129.5 -69
t48 -126.5v-34q0 -85 -47 -132t-128 -66t-185 -19q-97 0 -154.5 -4.5t-92.5 -20.5q-23 -10 -30 -21t-7 -43v-107h642v-130z" />
    <glyph glyph-name="three" unicode="3" horiz-adv-x="950" 
d="M498 -43q-107 0 -182.5 9t-132.5 44q-48 30 -73 80t-25 105v84h129v-84q0 -39 18 -63t68 -34.5t145 -10.5q154 0 219 15.5t65 72.5v34q0 31 -6.5 41.5t-30.5 20.5q-30 15 -87 20t-173 5v129q116 0 173 5t87 20q24 10 30.5 21t6.5 42v34q0 50 -52.5 69t-178.5 19
q-103 0 -158.5 -6.5t-88.5 -27.5q-22 -12 -29.5 -27t-7.5 -47v-84h-129v84q0 113 90 175t270 62h53q101 0 182.5 -21.5t129.5 -69t48 -126.5v-34q0 -58 -22.5 -100.5t-42.5 -52.5l10 -8q10 -9 22.5 -26.5t22.5 -46t10 -68.5v-36q0 -79 -48 -127t-129.5 -69.5t-182.5 -21.5z
" />
    <glyph glyph-name="four" unicode="4" horiz-adv-x="972" 
d="M807 -30h-130v179h-617v116l628 485h119v-471h98v-130h-98v-179zM677 279v299l-387 -299h387z" />
    <glyph glyph-name="five" unicode="5" horiz-adv-x="944" 
d="M452 -43q-166 0 -253 63t-87 175v44h129v-44q0 -40 17 -63.5t63 -34t131 -10.5h53q128 0 179.5 19t51.5 69v34q0 31 -6.5 41.5t-30.5 20.5q-52 25 -194 25h-401v454h736v-129h-606v-196h271q103 0 184.5 -18.5t128.5 -66t47 -131.5v-34q0 -77 -45.5 -124.5t-122.5 -70
t-174 -22.5z" />
    <glyph glyph-name="six" unicode="6" horiz-adv-x="959" 
d="M508 -43q-107 0 -182.5 9t-132.5 44q-48 30 -73 80t-25 105v352q0 79 48 126.5t129.5 69t182.5 21.5q107 0 182.5 -9t132.5 -43q48 -30 73 -80.5t25 -104.5v-54h-129v54q0 40 -18 63.5t-67.5 34t-145.5 10.5q-153 0 -218.5 -15.5t-65.5 -72.5v-106l37 1q74 8 247 8
q104 0 185 -19q175 -40 175 -198v-58q0 -79 -48 -127q-91 -91 -312 -91zM508 87q126 0 178.5 18.5t52.5 69.5v58q0 31 -6.5 42t-30.5 21q-34 16 -91.5 20.5t-155.5 4.5q-142 0 -194 -25q-24 -10 -30.5 -21t-6.5 -42v-38q0 -40 18 -63.5t68 -34t145 -10.5h53z" />
    <glyph glyph-name="seven" unicode="7" horiz-adv-x="821" 
d="M399 -30h-148l360 651h-562v129h711v-126z" />
    <glyph glyph-name="eight" unicode="8" horiz-adv-x="956" 
d="M504 -43h-53q-101 0 -183 22q-177 47 -177 196l-1 57q0 46 10 72t21 38.5t14 15.5l4 2l-6 8q-43 42 -43 119l1 26v34q0 79 48 126.5t129.5 69t182.5 21.5h53q101 0 182.5 -21.5t129.5 -69t48 -126.5v-34q0 -46 -8.5 -75.5t-19 -46.5t-17.5 -25l-4 -6l3 -2q4 -3 15 -17
t21 -44.5t10 -83.5v-38q0 -79 -48 -127t-129.5 -69.5t-182.5 -21.5zM504 425q142 0 194 25q24 10 30.5 21t6.5 42q0 42 -7.5 66.5t-35 36.5t-84.5 15.5t-157 3.5q-126 0 -178.5 -19t-52.5 -69v-34q0 -31 6.5 -42t30.5 -21q35 -16 92 -20.5t155 -4.5zM504 87q86 0 133 6.5
t68 21t25.5 37.5t4.5 57q0 31 -6.5 41.5t-30.5 20.5q-35 17 -93 21t-154 4q-142 0 -194 -25q-24 -10 -30.5 -20.5t-6.5 -41.5v-34q0 -51 52.5 -69.5t178.5 -18.5h53z" />
    <glyph glyph-name="nine" unicode="9" horiz-adv-x="959" 
d="M503 -43q-107 0 -182.5 9t-132.5 44q-48 30 -73 80t-25 105v54h129v-54q0 -39 18 -63t68 -34.5t145 -10.5q154 0 219 15.5t65 72.5v106h-2l-31 -2q-75 -8 -198 -8h-53q-103 0 -184.5 19t-128.5 66t-47 132v59q0 79 48 126.5t129.5 69t182.5 21.5h53q180 0 270 -62
t90 -175v-352q0 -79 -48 -127t-129.5 -69.5t-182.5 -21.5zM503 401q142 0 194 25q24 10 30.5 20.5t6.5 41.5v39q0 39 -18 63t-68 34.5t-145 10.5h-53q-127 0 -179 -19t-52 -69v-59q0 -31 6.5 -41.5t30.5 -20.5q35 -17 92 -21t155 -4z" />
    <glyph glyph-name="colon" unicode=":" horiz-adv-x="281" 
d="M140 429q-32 0 -60.5 28.5t-28.5 61.5q0 32 28.5 60.5t60.5 28.5q33 0 61.5 -28.5t28.5 -60.5q0 -33 -28.5 -61.5t-61.5 -28.5zM140 59q-32 0 -60.5 28t-28.5 61t28.5 61.5t60.5 28.5q33 0 61.5 -28.5t28.5 -61.5t-28.5 -61t-61.5 -28z" />
    <glyph glyph-name="semicolon" unicode=";" horiz-adv-x="330" 
d="M165 309q-33 0 -61.5 28.5t-28.5 61.5q0 32 28.5 60.5t61.5 28.5q32 0 60.5 -28.5t28.5 -60.5q0 -33 -28.5 -61.5t-60.5 -28.5zM151 -160h-103l50 278h165z" />
    <glyph glyph-name="semicolon" unicode="&#x37e;" horiz-adv-x="330" 
d="M165 309q-33 0 -61.5 28.5t-28.5 61.5q0 32 28.5 60.5t61.5 28.5q32 0 60.5 -28.5t28.5 -60.5q0 -33 -28.5 -61.5t-60.5 -28.5zM151 -160h-103l50 278h165z" />
    <glyph glyph-name="less" unicode="&#x3c;" horiz-adv-x="744" 
d="M644 110l-590 196v105l590 196l41 -123l-378 -126l378 -126z" />
    <glyph glyph-name="equal" unicode="=" horiz-adv-x="671" 
d="M642 384h-599v129h599v-129zM642 189h-599v129h599v-129z" />
    <glyph glyph-name="greater" unicode="&#x3e;" horiz-adv-x="744" 
d="M99 102l-41 122l379 126l-379 126l41 123l590 -196v-105z" />
    <glyph glyph-name="question" unicode="?" horiz-adv-x="882" 
d="M435 108h-129v90q0 53 16.5 98.5t50 72.5t77.5 37t91 10q95 0 131.5 16t36.5 72v33q0 51 -52 69.5t-179 18.5q-166 0 -225 -19.5t-59 -87.5v-84h-129v84q0 112 90 174.5t270 62.5h53q101 0 182.5 -21.5t129.5 -69.5t48 -127v-33q0 -83 -41.5 -130.5t-109 -67
t-146.5 -19.5q-70 0 -87 -17q-10 -8 -14.5 -22t-4.5 -50v-90zM370 -90q-32 0 -60.5 28.5t-28.5 60.5q0 33 28.5 61.5t60.5 28.5q33 0 61.5 -28.5t28.5 -61.5q0 -32 -28.5 -60.5t-61.5 -28.5z" />
    <glyph glyph-name="at" unicode="@" horiz-adv-x="1139" 
d="M606 -53q-87 0 -157.5 4.5t-129.5 20.5q-145 41 -201 169q-31 73 -31 164v91q0 359 450 359h69q139 0 239 -36q211 -75 211 -323v-91q-1 -49 -23 -92.5t-62.5 -71.5t-97.5 -28q-31 2 -57 10t-40 14t-17 6q-1 0 -1 -1v-1q-11 -14 -67.5 -21t-135.5 -7q-72 0 -127.5 23
t-87 70.5t-31.5 120.5v47q0 74 31.5 121t87 70t127.5 23q33 0 63 -1l216 1v-264q0 -63 17 -77q4 -3 26 -4q29 0 39.5 13.5t10.5 48.5v91q0 133 -71 181t-250 48q-126 0 -199 -9t-121 -44q-37 -25 -53.5 -64.5t-16.5 -111.5v-91q0 -132 71 -180.5t250 -48.5h69q46 0 90 4.5
t104 17.5l27 -126q-120 -25 -221 -25zM588 242q79 0 96 20q11 8 15.5 21t4.5 44v47q0 32 -4.5 44.5t-15.5 20.5q-15 13 -42.5 16.5t-86.5 3.5q-79 0 -96 -20q-11 -8 -15.5 -20.5t-4.5 -44.5v-47q0 -31 4.5 -44t15.5 -21q15 -13 42.5 -16.5t86.5 -3.5z" />
    <glyph glyph-name="A" unicode="A" horiz-adv-x="1063" 
d="M1034 -40h-150l-129 220h-447l-130 -220h-150l458 780h91zM679 310l-148 252l-148 -252h296z" />
    <glyph glyph-name="B" unicode="B" horiz-adv-x="1018" 
d="M538 429q147 0 199.5 15.5t52.5 59.5v31q0 37 -57 56.5t-195 19.5h-310v-182h310zM563 90q150 0 212 25q24 10 32 22t8 40v34q0 46 -58.5 67t-193.5 21h-335v-209h335zM873 364q7 -3 37 -45q34 -47 34 -108v-34q-13 -151 -117 -189q-49 -22 -115.5 -25t-148.5 -3h-464
v780h439q100 0 185.5 -12.5t141 -61.5t55.5 -131v-31q0 -66 -26 -112q-14 -25 -21 -28z" />
    <glyph glyph-name="C" unicode="C" horiz-adv-x="1022" 
d="M549 -68q-78 0 -143 4.5t-119 21.5t-99 53q-55 45 -83 117t-28 162v92q0 129 50.5 208t143 114.5t216.5 35.5q126 0 209.5 -10.5t148.5 -47.5q115 -64 115 -232h-130q0 58 -23.5 93.5t-84 51.5t-173.5 16q-112 0 -175.5 -9t-104.5 -42q-32 -25 -47.5 -65.5t-15.5 -112.5
v-92q0 -89 27 -139t88.5 -70t165.5 -20q118 0 184 7.5t110 33.5q29 15 39 37.5t10 82.5h130q0 -147 -107 -218.5t-304 -71.5z" />
    <glyph glyph-name="D" unicode="D" horiz-adv-x="1019" 
d="M534 -40h-435v780h435q125 0 217 -35.5t142.5 -114.5t50.5 -208v-63q0 -130 -50.5 -209t-142.5 -114.5t-217 -35.5zM534 90q104 0 165.5 20t88.5 69.5t27 139.5v63q0 89 -27 139t-88.5 70t-165.5 20h-306v-521h306z" />
    <glyph glyph-name="E" unicode="E" horiz-adv-x="989" 
d="M944 -40h-845v780h845v-129h-716v-196h618v-129h-618v-196h716v-130z" />
    <glyph glyph-name="F" unicode="F" horiz-adv-x="975" 
d="M228 -40h-129v780h845v-129h-716v-245h618v-130h-618v-276z" />
    <glyph glyph-name="G" unicode="G" horiz-adv-x="1041" 
d="M549 -68q-78 0 -143 4.5t-119 21.5t-99 53q-55 45 -83 117t-28 162v92q0 129 50.5 208t143 114.5t216.5 35.5q126 0 209.5 -10.5t148.5 -47.5q55 -31 85 -84.5t30 -117.5h-130q0 43 -23.5 72t-84 44t-173.5 15q-112 0 -175.5 -9t-104.5 -42q-32 -25 -47.5 -65.5
t-15.5 -112.5v-92q0 -89 27 -139t88.5 -70t165.5 -20q118 0 184 7.5t110 33.5q29 16 39 33t10 47v89h-352v130h482v-219q0 -117 -107 -183.5t-304 -66.5z" />
    <glyph glyph-name="H" unicode="H" horiz-adv-x="1058" 
d="M958 -40h-130v325h-599v-325h-129v780h129v-326h599v326h130v-780z" />
    <glyph glyph-name="I" unicode="I" horiz-adv-x="529" 
d="M476 -40h-426v129h148v521h-148v130h426v-130h-148v-521h148v-129z" />
    <glyph glyph-name="J" unicode="J" horiz-adv-x="902" 
d="M449 -54q-107 0 -182 9t-132 44q-98 56 -98 224h129q0 -59 18 -91t67.5 -44t144.5 -12q94 0 146.5 6t89.5 29q27 15 37 33t10 52v544h129v-544q0 -83 -46.5 -138.5t-127.5 -83.5t-185 -28z" />
    <glyph glyph-name="K" unicode="K" horiz-adv-x="1011" 
d="M694 327q12 -17 31 -40q19 -24 40 -52l208 -275h-163l-148 197q-46 68 -101.5 97.5t-197.5 29.5h-134v-324h-129v780h129v-325h134q142 0 197.5 30t101.5 98l148 197h163l-208 -275q-21 -28 -40 -52q-19 -23 -31.5 -39.5t-31.5 -24.5q20 -8 32 -22z" />
    <glyph glyph-name="L" unicode="L" horiz-adv-x="971" 
d="M944 -40h-845v780h129v-650h716v-130z" />
    <glyph glyph-name="M" unicode="M" horiz-adv-x="1169" 
d="M1069 -40h-129v506l-304 -506h-103l-304 506v-506h-129v780h116l368 -615l369 615h116v-780z" />
    <glyph glyph-name="N" unicode="N" horiz-adv-x="1056" 
d="M957 -40h-117l-612 588v-588h-129v780h116l612 -588v588h130v-780z" />
    <glyph glyph-name="O" unicode="O" horiz-adv-x="1072" 
d="M568 -68q-82 0 -149 4.5t-123 21.5q-138 41 -191 169q-29 73 -29 163v92q0 358 427 358h65q130 0 226 -35q202 -74 202 -323v-92q0 -358 -428 -358zM568 61q167 0 232.5 48t65.5 181v92q0 133 -65.5 181t-232.5 48q-118 0 -185.5 -9t-111.5 -43q-34 -25 -50 -65t-16 -112
v-92q0 -133 66 -181t232 -48h65z" />
    <glyph glyph-name="P" unicode="P" horiz-adv-x="974" 
d="M229 -40h-129v779l446 1q135 0 217.5 -32t120 -84.5t37.5 -113.5v-40q0 -61 -37.5 -113.5t-120 -84.5t-217.5 -32h-317v-280zM546 370q104 0 157 12t70.5 34.5t17.5 53.5v40q0 31 -17.5 53.5t-70.5 35t-157 12.5h-317v-241h317z" />
    <glyph glyph-name="Q" unicode="Q" horiz-adv-x="1072" 
d="M568 61q166 0 232 48.5t66 180.5v92q0 132 -66 180.5t-232 48.5h-65q-110 0 -175 -20.5t-94 -70t-29 -138.5v-92q0 -132 66 -180.5t232 -48.5h65zM472 -68q-110 0 -199 34q-93 34 -145 112.5t-52 211.5v92q0 130 52.5 209t148.5 114t226 35q82 0 149.5 -4.5t123.5 -21
t103 -52.5q58 -45 87.5 -117t29.5 -163v-92q0 -133 -52.5 -211.5t-145.5 -112.5q-90 -34 -196 -34q2 -13 47 -21q55 -10 200 -10h122v-130h-122q-70 0 -135.5 4t-118 19.5t-87.5 50.5q-35 45 -36 87z" />
    <glyph glyph-name="R" unicode="R" horiz-adv-x="1019" 
d="M950 -40h-146l-64 128q-20 42 -41.5 73t-56 47.5t-96.5 16.5h-317v-265h-129v780h446q137 0 219 -33.5t119 -87.5t37 -116v-41q-3 -91 -38 -139t-90 -70q34 -34 53 -76q25 -51 104 -217zM546 354q103 0 156 13t71 37t18 58v41q0 34 -18 58t-71 37t-156 13h-317v-257h317z
" />
    <glyph glyph-name="S" unicode="S" horiz-adv-x="977" 
d="M517 -48q-119 0 -197 9t-137 43q-51 30 -78 80t-27 105v84h129v-84q0 -39 20.5 -62.5t75 -34.5t157.5 -11q164 0 236.5 16t72.5 73v33q0 31 -7 41.5t-33 21.5q-39 17 -101 21.5t-168 4.5q-82 0 -148.5 7.5t-115.5 28.5q-53 24 -85.5 72.5t-32.5 108.5v33q0 82 52 129.5
t139 68t191 20.5q119 0 197 -9t137 -43q51 -29 78 -79.5t27 -105.5v-84h-130v84q0 39 -20 62.5t-74.5 34.5t-157.5 11q-164 0 -237 -16t-73 -73v-33q0 -30 7.5 -41t33.5 -21q38 -17 100.5 -21.5t168.5 -4.5q178 0 264 -37q53 -24 85.5 -72.5t32.5 -108.5v-33q0 -82 -52 -130
q-97 -88 -330 -88z" />
    <glyph glyph-name="T" unicode="T" horiz-adv-x="935" 
d="M532 -40h-129v651h-377v129h883v-129h-377v-651z" />
    <glyph glyph-name="U" unicode="U" horiz-adv-x="1034" 
d="M547 -54q-76 0 -139 4.5t-115.5 22t-97.5 53.5q-53 45 -80 117t-27 162v435h129v-435q0 -90 26 -140t85 -69.5t159 -19.5q108 0 169 8.5t100 41.5q31 24 45.5 65t14.5 114v435h130v-435q0 -129 -49 -208t-138.5 -115t-211.5 -36z" />
    <glyph glyph-name="V" unicode="V" horiz-adv-x="1057" 
d="M574 -40h-91l-458 780h150l353 -602l353 602h150z" />
    <glyph glyph-name="W" unicode="W" horiz-adv-x="1450" 
d="M1082 -40h-107l-250 577l-250 -577h-107l-338 780h141l250 -577l251 577h106l250 -577l251 577h141z" />
    <glyph glyph-name="X" unicode="X" horiz-adv-x="1063" 
d="M1029 -40h-186l-312 300l-312 -300h-186l405 390l-405 390h186l312 -300l312 300h186l-405 -390z" />
    <glyph glyph-name="Y" unicode="Y" horiz-adv-x="1042" 
d="M586 -40h-130v339l-437 441h182l320 -323l320 323h182l-437 -441v-339z" />
    <glyph glyph-name="Z" unicode="Z" horiz-adv-x="969" 
d="M926 -40h-883v115l660 536h-660v129h883v-116l-660 -535h660v-129z" />
    <glyph glyph-name="bracketleft" unicode="[" horiz-adv-x="441" 
d="M378 -90h-278v928h278v-130h-149v-669h149v-129z" />
    <glyph glyph-name="backslash" unicode="\" horiz-adv-x="700" 
d="M647 -36h-149l-450 779h149z" />
    <glyph glyph-name="bracketright" unicode="]" horiz-adv-x="441" 
d="M341 -90h-278v129h148v669h-148v130h278v-928z" />
    <glyph glyph-name="asciicircum" unicode="^" horiz-adv-x="548" 
d="M504 415h-149l-81 141l-82 -141h-149l179 310h103z" />
    <glyph glyph-name="underscore" unicode="_" horiz-adv-x="651" 
d="M625 -36h-599v129h599v-129z" />
    <glyph glyph-name="grave" unicode="`" horiz-adv-x="313" 
d="M284 689h-125l-145 253h198z" />
    <glyph glyph-name="a" unicode="a" horiz-adv-x="1063" 
d="M1034 -40h-150l-129 220h-447l-130 -220h-150l458 780h91zM679 310l-148 252l-148 -252h296z" />
    <glyph glyph-name="b" unicode="b" horiz-adv-x="1018" 
d="M538 429q147 0 199.5 15.5t52.5 59.5v31q0 37 -57 56.5t-195 19.5h-310v-182h310zM563 90q150 0 212 25q24 10 32 22t8 40v34q0 46 -58.5 67t-193.5 21h-335v-209h335zM873 364q7 -3 37 -45q34 -47 34 -108v-34q-13 -151 -117 -189q-49 -22 -115.5 -25t-148.5 -3h-464
v780h439q100 0 185.5 -12.5t141 -61.5t55.5 -131v-31q0 -66 -26 -112q-14 -25 -21 -28z" />
    <glyph glyph-name="c" unicode="c" horiz-adv-x="1022" 
d="M549 -68q-78 0 -143 4.5t-119 21.5t-99 53q-55 45 -83 117t-28 162v92q0 129 50.5 208t143 114.5t216.5 35.5q126 0 209.5 -10.5t148.5 -47.5q115 -64 115 -232h-130q0 58 -23.5 93.5t-84 51.5t-173.5 16q-112 0 -175.5 -9t-104.5 -42q-32 -25 -47.5 -65.5t-15.5 -112.5
v-92q0 -89 27 -139t88.5 -70t165.5 -20q118 0 184 7.5t110 33.5q29 15 39 37.5t10 82.5h130q0 -147 -107 -218.5t-304 -71.5z" />
    <glyph glyph-name="d" unicode="d" horiz-adv-x="1019" 
d="M534 -40h-435v780h435q125 0 217 -35.5t142.5 -114.5t50.5 -208v-63q0 -130 -50.5 -209t-142.5 -114.5t-217 -35.5zM534 90q104 0 165.5 20t88.5 69.5t27 139.5v63q0 89 -27 139t-88.5 70t-165.5 20h-306v-521h306z" />
    <glyph glyph-name="e" unicode="e" horiz-adv-x="989" 
d="M944 -40h-845v780h845v-129h-716v-196h618v-129h-618v-196h716v-130z" />
    <glyph glyph-name="f" unicode="f" horiz-adv-x="975" 
d="M228 -40h-129v780h845v-129h-716v-245h618v-130h-618v-276z" />
    <glyph glyph-name="g" unicode="g" horiz-adv-x="1041" 
d="M549 -68q-78 0 -143 4.5t-119 21.5t-99 53q-55 45 -83 117t-28 162v92q0 129 50.5 208t143 114.5t216.5 35.5q126 0 209.5 -10.5t148.5 -47.5q55 -31 85 -84.5t30 -117.5h-130q0 43 -23.5 72t-84 44t-173.5 15q-112 0 -175.5 -9t-104.5 -42q-32 -25 -47.5 -65.5
t-15.5 -112.5v-92q0 -89 27 -139t88.5 -70t165.5 -20q118 0 184 7.5t110 33.5q29 16 39 33t10 47v89h-352v130h482v-219q0 -117 -107 -183.5t-304 -66.5z" />
    <glyph glyph-name="h" unicode="h" horiz-adv-x="1058" 
d="M958 -40h-130v325h-599v-325h-129v780h129v-326h599v326h130v-780z" />
    <glyph glyph-name="i" unicode="i" horiz-adv-x="529" 
d="M476 -40h-426v129h148v521h-148v130h426v-130h-148v-521h148v-129z" />
    <glyph glyph-name="j" unicode="j" horiz-adv-x="902" 
d="M449 -54q-107 0 -182 9t-132 44q-98 56 -98 224h129q0 -59 18 -91t67.5 -44t144.5 -12q94 0 146.5 6t89.5 29q27 15 37 33t10 52v544h129v-544q0 -83 -46.5 -138.5t-127.5 -83.5t-185 -28z" />
    <glyph glyph-name="k" unicode="k" horiz-adv-x="1011" 
d="M694 327q12 -17 31 -40q19 -24 40 -52l208 -275h-163l-148 197q-46 68 -101.5 97.5t-197.5 29.5h-134v-324h-129v780h129v-325h134q142 0 197.5 30t101.5 98l148 197h163l-208 -275q-21 -28 -40 -52q-19 -23 -31.5 -39.5t-31.5 -24.5q20 -8 32 -22z" />
    <glyph glyph-name="l" unicode="l" horiz-adv-x="971" 
d="M944 -40h-845v780h129v-650h716v-130z" />
    <glyph glyph-name="m" unicode="m" horiz-adv-x="1169" 
d="M1069 -40h-129v506l-304 -506h-103l-304 506v-506h-129v780h116l368 -615l369 615h116v-780z" />
    <glyph glyph-name="n" unicode="n" horiz-adv-x="1056" 
d="M957 -40h-117l-612 588v-588h-129v780h116l612 -588v588h130v-780z" />
    <glyph glyph-name="o" unicode="o" horiz-adv-x="1072" 
d="M568 -68q-82 0 -149 4.5t-123 21.5q-138 41 -191 169q-29 73 -29 163v92q0 358 427 358h65q130 0 226 -35q202 -74 202 -323v-92q0 -358 -428 -358zM568 61q167 0 232.5 48t65.5 181v92q0 133 -65.5 181t-232.5 48q-118 0 -185.5 -9t-111.5 -43q-34 -25 -50 -65t-16 -112
v-92q0 -133 66 -181t232 -48h65z" />
    <glyph glyph-name="p" unicode="p" horiz-adv-x="974" 
d="M229 -40h-129v779l446 1q135 0 217.5 -32t120 -84.5t37.5 -113.5v-40q0 -61 -37.5 -113.5t-120 -84.5t-217.5 -32h-317v-280zM546 370q104 0 157 12t70.5 34.5t17.5 53.5v40q0 31 -17.5 53.5t-70.5 35t-157 12.5h-317v-241h317z" />
    <glyph glyph-name="q" unicode="q" horiz-adv-x="1072" 
d="M568 61q166 0 232 48.5t66 180.5v92q0 132 -66 180.5t-232 48.5h-65q-110 0 -175 -20.5t-94 -70t-29 -138.5v-92q0 -132 66 -180.5t232 -48.5h65zM472 -68q-110 0 -199 34q-93 34 -145 112.5t-52 211.5v92q0 130 52.5 209t148.5 114t226 35q82 0 149.5 -4.5t123.5 -21
t103 -52.5q58 -45 87.5 -117t29.5 -163v-92q0 -133 -52.5 -211.5t-145.5 -112.5q-90 -34 -196 -34q2 -13 47 -21q55 -10 200 -10h122v-130h-122q-70 0 -135.5 4t-118 19.5t-87.5 50.5q-35 45 -36 87z" />
    <glyph glyph-name="r" unicode="r" horiz-adv-x="1019" 
d="M950 -40h-146l-64 128q-20 42 -41.5 73t-56 47.5t-96.5 16.5h-317v-265h-129v780h446q137 0 219 -33.5t119 -87.5t37 -116v-41q-3 -91 -38 -139t-90 -70q34 -34 53 -76q25 -51 104 -217zM546 354q103 0 156 13t71 37t18 58v41q0 34 -18 58t-71 37t-156 13h-317v-257h317z
" />
    <glyph glyph-name="s" unicode="s" horiz-adv-x="977" 
d="M517 -48q-119 0 -197 9t-137 43q-51 30 -78 80t-27 105v84h129v-84q0 -39 20.5 -62.5t75 -34.5t157.5 -11q164 0 236.5 16t72.5 73v33q0 31 -7 41.5t-33 21.5q-39 17 -101 21.5t-168 4.5q-82 0 -148.5 7.5t-115.5 28.5q-53 24 -85.5 72.5t-32.5 108.5v33q0 82 52 129.5
t139 68t191 20.5q119 0 197 -9t137 -43q51 -29 78 -79.5t27 -105.5v-84h-130v84q0 39 -20 62.5t-74.5 34.5t-157.5 11q-164 0 -237 -16t-73 -73v-33q0 -30 7.5 -41t33.5 -21q38 -17 100.5 -21.5t168.5 -4.5q178 0 264 -37q53 -24 85.5 -72.5t32.5 -108.5v-33q0 -82 -52 -130
q-97 -88 -330 -88z" />
    <glyph glyph-name="t" unicode="t" horiz-adv-x="935" 
d="M532 -40h-129v651h-377v129h883v-129h-377v-651z" />
    <glyph glyph-name="u" unicode="u" horiz-adv-x="1034" 
d="M547 -54q-76 0 -139 4.5t-115.5 22t-97.5 53.5q-53 45 -80 117t-27 162v435h129v-435q0 -90 26 -140t85 -69.5t159 -19.5q108 0 169 8.5t100 41.5q31 24 45.5 65t14.5 114v435h130v-435q0 -129 -49 -208t-138.5 -115t-211.5 -36z" />
    <glyph glyph-name="v" unicode="v" horiz-adv-x="1057" 
d="M574 -40h-91l-458 780h150l353 -602l353 602h150z" />
    <glyph glyph-name="w" unicode="w" horiz-adv-x="1450" 
d="M1082 -40h-107l-250 577l-250 -577h-107l-338 780h141l250 -577l251 577h106l250 -577l251 577h141z" />
    <glyph glyph-name="x" unicode="x" horiz-adv-x="1063" 
d="M1029 -40h-186l-312 300l-312 -300h-186l405 390l-405 390h186l312 -300l312 300h186l-405 -390z" />
    <glyph glyph-name="y" unicode="y" horiz-adv-x="1042" 
d="M586 -40h-130v339l-437 441h182l320 -323l320 323h182l-437 -441v-339z" />
    <glyph glyph-name="z" unicode="z" horiz-adv-x="969" 
d="M926 -40h-883v115l660 536h-660v129h883v-116l-660 -535h660v-129z" />
    <glyph glyph-name="braceleft" unicode="{" horiz-adv-x="538" 
d="M487 -40q-90 0 -144.5 8t-88.5 32q-37 26 -54 71t-17 94v119q0 34 -3.5 46t-9.5 17q-4 4 -13.5 7t-31.5 4t-64 1v130q42 0 64 1t31.5 4t13.5 7q6 5 9.5 17t3.5 46v119q0 49 17 93.5t54 71.5q34 24 88.5 32t144.5 8v-130q-83 0 -116.5 -4.5t-43.5 -12.5q-6 -4 -9.5 -9
t-4.5 -16t-1 -33v-119q0 -48 -8 -84t-13 -50l-2 -6l2 -6q5 -14 13 -50t8 -84v-119q0 -22 1 -33t4.5 -16t9.5 -9q10 -9 43.5 -13.5t116.5 -4.5v-129z" />
    <glyph glyph-name="bar" unicode="|" horiz-adv-x="330" 
d="M229 -131h-129v977h129v-977z" />
    <glyph glyph-name="braceright" unicode="}" horiz-adv-x="538" 
d="M51 -40v129q140 0 160 18q12 8 14 25q1 11 1 152q0 68 21 136l1 4l-1 4q-21 68 -21 136q0 141 -1 152q-2 17 -14 25q-21 17 -160 17v130q89 0 144 -8q160 -24 160 -197q0 -153 3 -165q5 -20 23 -24.5t96 -4.5v-130q-80 0 -97 -5.5t-22 -23.5q-3 -12 -3 -165
q0 -173 -160 -197q-55 -8 -144 -8z" />
    <glyph glyph-name="asciitilde" unicode="~" horiz-adv-x="835" 
d="M149 225l-108 71q129 191 245 191q82 0 155 -62l25 -20q27 -22 43.5 -31.5t37.5 -9.5q18 0 35 8.5t42 37.5t63 86l106 -70q-120 -192 -246 -192q-42 0 -74.5 12.5t-57.5 30.5t-46 36.5t-40 31t-39 12.5q-26 0 -56 -25.5t-85 -106.5z" />
    <glyph glyph-name="exclamdown" unicode="&#xa1;" horiz-adv-x="353" 
d="M176 626q-32 0 -60.5 28t-28.5 61t28.5 61.5t60.5 28.5q33 0 61.5 -28.5t28.5 -61.5t-28.5 -61t-61.5 -28zM260 -25h-167l29 632h108z" />
    <glyph glyph-name="cent" unicode="&#xa2;" horiz-adv-x="846" 
d="M490 -40h-129v78q-77 0 -140 28.5t-101 90t-38 160.5v66q0 99 38 160t100 89.5t136 28.5h5v79h129v-79q78 0 140.5 -25t100 -78t37.5 -136h-130q0 65 -31.5 87.5t-109.5 22.5h-7v-364h7q78 0 109.5 22.5t31.5 87.5h130q0 -83 -37.5 -136t-100 -78.5t-140.5 -25.5v-78z
M361 168v364h-10q-70 0 -105 -29t-35 -120v-66q0 -91 35 -120t105 -29h10z" />
    <glyph glyph-name="sterling" unicode="&#xa3;" horiz-adv-x="1090" 
d="M997 -36h-820v130h49v134h-167v130h167v121q0 94 48.5 152.5t132 85.5t189.5 27h55q99 0 183.5 -20.5t136 -73.5t51.5 -151h-130q0 72 -54 93.5t-187 21.5q-95 0 -151 -6t-95 -29q-28 -16 -39 -37t-11 -63v-121h475v-130h-475v-134h642v-130z" />
    <glyph glyph-name="yen" unicode="&#xa5;" horiz-adv-x="1128" 
d="M629 -40h-130v162h-321v130h321v18h-321v130h221l-337 340h182l320 -323l320 323h182l-337 -340h221v-130h-321v-18h321v-130h-321v-162z" />
    <glyph glyph-name="brokenbar" unicode="&#xa6;" horiz-adv-x="318" 
d="M223 384h-129v391h129v-391zM223 -64h-129v391h129v-391z" />
    <glyph glyph-name="section" unicode="&#xa7;" horiz-adv-x="557" 
 />
    <glyph glyph-name="dieresis" unicode="&#xa8;" horiz-adv-x="499" 
d="M136 700q-70 0 -95 30.5t-25 86.5q0 49 32.5 74t74.5 25h13q44 0 67.5 -16.5t31.5 -43t8 -57.5q0 -48 -32 -73.5t-75 -25.5zM404 700q-70 0 -94.5 30.5t-24.5 86.5q0 49 32 74t75 25h12q45 0 68 -16.5t31.5 -43t8.5 -57.5q0 -48 -32.5 -73.5t-75.5 -25.5z" />
    <glyph glyph-name="copyright" unicode="&#xa9;" horiz-adv-x="1143" 
d="M606 -57q-87 0 -158 4t-129.5 20.5t-108.5 52.5q-60 44 -91.5 116.5t-31.5 164.5v91q1 129 55.5 208t155.5 114.5t239 35.5q87 0 158 -4t129 -21q145 -41 200 -169q32 -73 32 -164v-91q0 -358 -450 -358zM606 72q179 0 250 48.5t71 180.5v91q0 132 -71 180.5t-250 48.5
q-126 0 -199 -9t-121 -44q-36 -25 -53 -64.5t-17 -111.5v-91q0 -132 71 -180.5t250 -48.5h69zM590 92h-37q-118 0 -189 54.5t-71 173.5v53q0 118 71 172.5t189 54.5h37q124 0 192.5 -50t68.5 -151h-117q0 52 -26 68.5t-118 16.5q-67 0 -100 -4.5t-52 -20.5
q-16 -11 -22.5 -29.5t-6.5 -56.5v-53q0 -69 29.5 -90t114.5 -21q113 0 147 14.5t34 70.5h117q0 -102 -69 -152t-192 -50z" />
    <glyph glyph-name="registered" unicode="&#xae;" horiz-adv-x="681" 
d="M355 527q7 0 14 1t8 9q0 7 -4 10h-49v-20h31zM461 402h-76q-6 17 -9.5 28.5t-6 17t-6.5 10.5l-39 -1v-55h-71v215h102q36 0 55 -13t26.5 -32.5t7.5 -39.5q0 -27 -15 -57zM358 377q91 0 124 21t33 85v48q0 63 -33 84.5t-124 21.5h-36q-91 0 -124 -21.5t-33 -84.5v-48
q0 -48 17 -70.5t59 -29t117 -6.5zM358 280h-36q-254 0 -254 203v48q0 106 68.5 154.5t185.5 48.5h36q117 0 185.5 -48.5t68.5 -154.5v-48q0 -203 -254 -203z" />
    <glyph glyph-name="plusminus" unicode="&#xb1;" horiz-adv-x="744" 
d="M436 195h-129v167h-247v129h247v167h129v-167h247v-129h-247v-167zM685 32h-623v129h623v-129z" />
    <glyph glyph-name="acute" unicode="&#xb4;" horiz-adv-x="317" 
d="M165 685h-126l72 253h198z" />
    <glyph glyph-name="cedilla" unicode="&#xb8;" horiz-adv-x="317" 
d="M194 -240h-141v117h107q18 1 22 2t4 4l1 2h-161l110 155h157l-32 -48q-1 0 -1 -1t5 -6q46 -41 46 -109q0 -57 -34.5 -86t-82.5 -30z" />
    <glyph glyph-name="questiondown" unicode="&#xbf;" horiz-adv-x="910" 
d="M539 626q-33 0 -61.5 28t-28.5 61t28.5 61.5t61.5 28.5t60.5 -27.5t28.5 -62.5q0 -33 -28 -61t-61 -28zM484 -40h-53q-101 0 -182.5 21.5t-129.5 69t-48 127.5v33q0 83 41.5 130t109 67t144.5 20t89 17q10 7 14.5 21.5t4.5 50.5v90h129v-90q0 -53 -16.5 -98.5t-50 -73
t-77.5 -37t-91 -9.5q-95 0 -131.5 -16t-36.5 -72v-33q0 -51 52.5 -70t178.5 -19q166 0 225 19.5t59 88.5v84h129v-84q0 -112 -90 -174.5t-270 -62.5z" />
    <glyph glyph-name="Agrave" unicode="&#xc0;" 
d="M1059 -40h-150l-129 220h-447l-130 -220h-150l458 780h91zM704 310l-148 252l-148 -252h296zM632 759h-125l-145 253h198z" />
    <glyph glyph-name="Aacute" unicode="&#xc1;" 
d="M615 769h-126l73 253h198zM1059 -40h-150l-129 220h-447l-130 -220h-150l458 780h91zM704 310l-148 252l-148 -252h296z" />
    <glyph glyph-name="Acircumflex" unicode="&#xc2;" 
d="M798 759h-198l-44 82l-43 -82h-198l197 253h88zM1059 -40h-150l-129 220h-447l-130 -220h-150l458 780h91zM704 310l-148 252l-148 -252h296z" />
    <glyph glyph-name="Atilde" unicode="&#xc3;" 
d="M1059 -40h-150l-129 220h-447l-130 -220h-150l458 780h91zM704 310l-148 252l-148 -252h296zM426 752l-114 54q41 85 77 124t84 39q52 0 101 -48q29 -30 29 -31l4 1q8 5 42 92l117 -54q-40 -83 -77.5 -123t-83.5 -40q-56 0 -111 58q-18 20 -18 21q-2 0 -5.5 -2t-12 -19.5
t-32.5 -71.5z" />
    <glyph glyph-name="Adieresis" unicode="&#xc4;" 
d="M682 729h-13q-44 0 -67 16.5t-31.5 43.5t-8.5 57q0 41 17.5 62t45 29t57.5 8q44 0 67 -16.5t31.5 -43t8.5 -57.5q0 -48 -32.5 -73.5t-74.5 -25.5zM443 729h-12q-45 0 -68 16.5t-31.5 43.5t-8.5 57q0 41 17.5 62t45 29t57.5 8q45 0 68 -16.5t31 -43t8 -57.5
q0 -48 -32 -73.5t-75 -25.5zM1059 -40h-150l-129 220h-447l-130 -220h-150l458 780h91zM704 310l-148 252l-148 -252h296z" />
    <glyph glyph-name="Aring" unicode="&#xc5;" 
d="M585 782v46h-58v-22q0 -23 0.5 -23.5t36.5 -0.5h21zM704 310l-148 252l-147 -252h295zM1059 -40h-150l-129 220h-447l-130 -220h-150l414 705q-62 4 -62 129v22q0 63 42 103q38 31 110 31q70 0 108 -31q42 -40 42 -103v-22q0 -124 -61 -129z" />
    <glyph glyph-name="AE" unicode="&#xc6;" horiz-adv-x="1528" 
d="M1462 -40h-846v220h-304l-193 -220h-172l683 780h832v-130h-717v-196h618v-129h-618v-196h717v-129zM616 310v217l-190 -217h190z" />
    <glyph glyph-name="Ccedilla" unicode="&#xc7;" horiz-adv-x="1022" 
d="M456 -66q-17 0 -49 3q-65 4 -119.5 21t-99.5 53q-55 45 -83 116.5t-28 162.5v92q0 130 50.5 209t142.5 114t217 35q127 0 210 -10t148 -47q55 -32 85 -88t30 -145h-130q0 63 -23 95.5t-84 49t-174 16.5q-111 0 -175 -9t-106 -42q-31 -24 -46.5 -65t-15.5 -113v-92
q0 -89 27.5 -138.5t89 -70t164.5 -20.5q117 0 183.5 8t110.5 33q28 15 38.5 36t10.5 84h130q0 -150 -108 -221q-88 -58 -238 -67l-10 -16q-5 0 -5 -2q0 -3 13 -12.5t27.5 -35t14.5 -66.5q0 -58 -34 -86.5t-83 -29.5h-141v117h113q11 0 15.5 2.5t4.5 5.5h-160z" />
    <glyph glyph-name="Egrave" unicode="&#xc8;" horiz-adv-x="1013" 
d="M945 -40h-845v780h845v-130h-716v-196h618v-129h-618v-196h716v-129zM622 759h-126l-144 253h198z" />
    <glyph glyph-name="Eacute" unicode="&#xc9;" horiz-adv-x="1013" 
d="M945 -40h-845v780h845v-130h-716v-196h618v-129h-618v-196h716v-129zM542 759h-126l72 253h198z" />
    <glyph glyph-name="Ecircumflex" unicode="&#xca;" horiz-adv-x="1013" 
d="M945 -40h-845v780h845v-130h-716v-196h618v-129h-618v-196h716v-129zM764 759h-198l-43 81l-44 -81h-198l198 253h88z" />
    <glyph glyph-name="Edieresis" unicode="&#xcb;" horiz-adv-x="1013" 
d="M945 -40h-845v780h845v-130h-716v-196h618v-129h-618v-196h716v-129zM652 749h-13q-44 0 -67 16.5t-31.5 43.5t-8.5 57q0 41 17.5 62t45 29t57.5 8q44 0 67 -16.5t31.5 -43t8.5 -57.5q0 -48 -32.5 -73.5t-74.5 -25.5zM413 749h-12q-45 0 -68 16.5t-31.5 43.5t-8.5 57
q0 41 17.5 62t45 29t57.5 8q45 0 68 -16.5t31 -43t8 -57.5q0 -48 -32 -73.5t-75 -25.5z" />
    <glyph glyph-name="Igrave" unicode="&#xcc;" horiz-adv-x="552" 
d="M489 -40h-426v129h148v521h-148v130h426v-130h-148v-521h148v-129zM351 759h-126l-144 253h198z" />
    <glyph glyph-name="Iacute" unicode="&#xcd;" horiz-adv-x="552" 
d="M489 -40h-426v129h148v521h-148v130h426v-130h-148v-521h148v-129zM340 759h-125l72 253h198z" />
    <glyph glyph-name="Icircumflex" unicode="&#xce;" horiz-adv-x="609" 
d="M518 -40h-426v129h148v521h-148v130h426v-130h-148v-521h148v-129zM546 759h-198l-43 81l-44 -81h-198l198 253h88z" />
    <glyph glyph-name="Idieresis" unicode="&#xcf;" horiz-adv-x="552" 
d="M489 -40h-426v129h148v521h-148v130h426v-130h-148v-521h148v-129zM408 757h-13q-44 0 -67 16.5t-31.5 43.5t-8.5 57q0 41 17.5 62t45 29t57.5 8q44 0 67 -16.5t31.5 -43t8.5 -57.5q0 -48 -32.5 -73.5t-74.5 -25.5zM169 757h-12q-45 0 -68 16.5t-31.5 43.5t-8.5 57
q0 41 17.5 62t45 29t57.5 8q45 0 68 -16.5t31 -43t8 -57.5q0 -48 -32 -73.5t-75 -25.5z" />
    <glyph glyph-name="Eth" unicode="&#xd0;" horiz-adv-x="1142" 
d="M645 -40h-435v310h-152v129h152v341h435q124 0 216.5 -35.5t143 -114.5t50.5 -209v-63q0 -129 -50.5 -208t-143 -114.5t-216.5 -35.5zM645 89q104 0 165.5 20t88.5 70t27 139v63q0 90 -27 139.5t-88.5 69.5t-165.5 20h-306v-211h318v-129h-318v-181h306z" />
    <glyph glyph-name="Ntilde" unicode="&#xd1;" horiz-adv-x="1058" 
d="M958 -40h-117l-612 588v-588h-129v780h116l612 -588v588h130v-780zM416 695l-114 54q41 85 77 124t84 39q52 0 101 -48q29 -30 29 -31l4 1q8 5 42 92l117 -54q-40 -83 -77.5 -123t-83.5 -40q-56 0 -111 58q-18 20 -18 21q-2 0 -5.5 -2t-12 -19.5t-32.5 -71.5z" />
    <glyph glyph-name="Ograve" unicode="&#xd2;" horiz-adv-x="1094" 
d="M579 -40q-82 0 -149 4.5t-123 21.5q-138 41 -191 169q-29 73 -29 163v92q0 358 427 358q82 0 149.5 -4.5t123.5 -21.5t103 -53q116 -92 117 -279v-92q0 -358 -428 -358zM579 89q167 0 232.5 48t65.5 181v92q0 133 -65.5 181t-232.5 48q-118 0 -185.5 -9t-111.5 -43
q-34 -25 -50 -65t-16 -112v-92q0 -133 66 -181t232 -48h65zM641 783h-126l-144 253h198z" />
    <glyph glyph-name="Oacute" unicode="&#xd3;" horiz-adv-x="1094" 
d="M579 -40q-82 0 -149 4.5t-123 21.5q-138 41 -191 169q-29 73 -29 163v92q0 358 427 358q82 0 149.5 -4.5t123.5 -21.5t103 -53q116 -92 117 -279v-92q0 -358 -428 -358zM579 89q167 0 232.5 48t65.5 181v92q0 133 -65.5 181t-232.5 48q-118 0 -185.5 -9t-111.5 -43
q-34 -25 -50 -65t-16 -112v-92q0 -133 66 -181t232 -48h65zM605 783h-125l72 253h198z" />
    <glyph glyph-name="Ocircumflex" unicode="&#xd4;" horiz-adv-x="1094" 
d="M579 -40q-82 0 -149 4.5t-123 21.5q-138 41 -191 169q-29 73 -29 163v92q0 358 427 358q82 0 149.5 -4.5t123.5 -21.5q138 -41 190 -169q30 -73 30 -163v-92q0 -358 -428 -358zM579 89q167 0 232.5 48t65.5 181v92q0 133 -65.5 181t-232.5 48q-118 0 -185.5 -9
t-111.5 -43q-34 -25 -50 -65t-16 -112v-92q0 -133 66 -181t232 -48h65zM788 783h-198l-43 82l-44 -82h-198l198 253h88z" />
    <glyph glyph-name="Otilde" unicode="&#xd5;" horiz-adv-x="1094" 
d="M416 775l-114 54q41 85 77 124t84 39q52 0 101 -48q29 -30 29 -31l4 1q8 5 42 92l117 -54q-40 -83 -77.5 -123t-83.5 -40q-56 0 -111 58q-18 20 -18 21q-2 0 -5.5 -2t-12 -19.5t-32.5 -71.5zM579 -40q-82 0 -149 4.5t-123 21.5q-138 41 -191 169q-29 73 -29 163v92
q0 358 427 358q82 0 149.5 -4.5t123.5 -21.5q138 -41 190 -169q30 -73 30 -163v-92q0 -358 -428 -358zM579 89q167 0 232.5 48t65.5 181v92q0 133 -65.5 181t-232.5 48q-118 0 -185.5 -9t-111.5 -43q-34 -25 -50 -65t-16 -112v-92q0 -133 66 -181t232 -48h65z" />
    <glyph glyph-name="Odieresis" unicode="&#xd6;" horiz-adv-x="1094" 
d="M579 -40q-82 0 -149 4.5t-123 21.5q-138 41 -191 169q-29 73 -29 163v92q0 358 427 358q82 0 149.5 -4.5t123.5 -21.5q138 -41 190 -169q30 -73 30 -163v-92q0 -358 -428 -358zM579 89q167 0 232.5 48t65.5 181v92q0 133 -65.5 181t-232.5 48q-118 0 -185.5 -9
t-111.5 -43q-34 -25 -50 -65t-16 -112v-92q0 -133 66 -181t232 -48h65zM652 779h-13q-44 0 -67 16.5t-31.5 43.5t-8.5 57q0 41 17.5 62t45 29t57.5 8q44 0 67 -16.5t31.5 -43t8.5 -57.5q0 -48 -32.5 -73.5t-74.5 -25.5zM413 779h-12q-45 0 -68 16.5t-31.5 43.5t-8.5 57
q0 41 17.5 62t45 29t57.5 8q45 0 68 -16.5t31 -43t8 -57.5q0 -48 -32 -73.5t-75 -25.5z" />
    <glyph glyph-name="multiply" unicode="&#xd7;" horiz-adv-x="751" 
d="M604 45l-229 204l-229 -204l-86 96l218 195l-218 195l86 96l229 -204l229 204l86 -96l-218 -195l218 -195z" />
    <glyph glyph-name="Oslash" unicode="&#xd8;" horiz-adv-x="1097" 
d="M710 633q-5 0 -20 1q-40 5 -109 5q-118 0 -185 -9t-112 -43q-34 -25 -50 -65t-16 -112v-92q0 -67 10 -103t20 -43zM581 89q167 0 232.5 48t65.5 181v92q0 75 -13.5 114t-32.5 50l-474 -474q15 -11 222 -11zM199 -60l-92 92l50 49q-27 24 -47.5 89t-20.5 148v92
q0 130 53 209t149 114t225 35q109 0 180.5 -6t114.5 -27l52 53l92 -92l-30 -30q32 -24 58 -93t26 -163v-92q0 -130 -53 -209t-149 -114t-226 -35q-117 0 -196 8.5t-124 34.5z" />
    <glyph glyph-name="Ugrave" unicode="&#xd9;" horiz-adv-x="1044" 
d="M552 -40q-76 0 -139 4.5t-115.5 21.5t-97.5 54q-53 45 -80 116.5t-27 161.5v436h129v-436q0 -89 26 -139t85 -70t159 -20q108 0 169 8.5t100 42.5q31 24 45.5 65t14.5 113v436h130v-436q0 -129 -49 -207.5t-138.5 -114.5t-211.5 -36zM612 773h-126l-144 253h197z" />
    <glyph glyph-name="Uacute" unicode="&#xda;" horiz-adv-x="1044" 
d="M552 -40q-76 0 -139 4.5t-115.5 21.5t-97.5 54q-53 45 -80 116.5t-27 161.5v436h129v-436q0 -89 26 -139t85 -70t159 -20q108 0 169 8.5t100 42.5q31 24 45.5 65t14.5 113v436h130v-436q0 -129 -49 -207.5t-138.5 -114.5t-211.5 -36zM585 773h-126l73 253h197z" />
    <glyph glyph-name="Ucircumflex" unicode="&#xdb;" horiz-adv-x="1044" 
d="M552 -40q-76 0 -139 4.5t-115.5 21.5t-97.5 54q-53 45 -80 116.5t-27 161.5v436h129v-436q0 -89 26 -139t85 -70t159 -20q108 0 169 8.5t100 42.5q31 24 45.5 65t14.5 113v436h130v-436q0 -129 -49 -207.5t-138.5 -114.5t-211.5 -36zM763 773h-198l-43 82l-43 -82h-198
l197 253h88z" />
    <glyph glyph-name="Udieresis" unicode="&#xdc;" horiz-adv-x="1044" 
d="M552 -40q-76 0 -139 4.5t-115.5 21.5t-97.5 54q-53 45 -80 116.5t-27 161.5v436h129v-436q0 -89 26 -139t85 -70t159 -20q108 0 169 8.5t100 42.5q31 24 45.5 65t14.5 113v436h130v-436q0 -129 -49 -207.5t-138.5 -114.5t-211.5 -36zM652 749h-13q-44 0 -67 16.5
t-31.5 43.5t-8.5 57q0 41 17.5 62t45 29t57.5 8q44 0 67 -16.5t31.5 -43t8.5 -57.5q0 -48 -32.5 -73.5t-74.5 -25.5zM413 749h-12q-45 0 -68 16.5t-31.5 43.5t-8.5 57q0 41 17.5 62t45 29t57.5 8q45 0 68 -16.5t31 -43t8 -57.5q0 -48 -32 -73.5t-75 -25.5z" />
    <glyph glyph-name="Yacute" unicode="&#xdd;" horiz-adv-x="1093" 
d="M581 753h-126l73 253h197zM611 -40h-130v339l-437 441h182l320 -323l320 323h182l-437 -441v-339z" />
    <glyph glyph-name="Thorn" unicode="&#xde;" horiz-adv-x="994" 
d="M229 -40h-129v780h129v-140h317q135 0 217.5 -32t120 -84.5t37.5 -113.5v-40q0 -61 -37.5 -113.5t-120 -84.5t-217.5 -32h-317v-140zM546 229q104 0 157 12.5t70.5 35t17.5 53.5v40q0 31 -17.5 53.5t-70.5 34.5t-157 12h-317v-241h317z" />
    <glyph glyph-name="germandbls" unicode="&#xdf;" horiz-adv-x="1028" 
d="M879 380q2 -6 10 -17q15 -20 34 -58t19 -90v-34q0 -60 -32.5 -108.5t-85.5 -71.5q-48 -21 -115 -29t-148 -8h-281v130h281q152 0 212 25q25 11 32.5 21.5t7.5 40.5v34q0 50 -57.5 69t-194.5 19h-281v129h256q148 0 200 14.5t52 61.5v31q0 41 -56 58t-196 17
q-166 0 -238 -14t-72 -61v-575h-129v575q0 80 54 124.5t141 62.5t187 18h57q100 0 187 -18t141 -62.5t54 -124.5v-31q0 -39 -10.5 -69t-21.5 -47v-1q-5 -7 -7 -11z" />
    <glyph glyph-name="agrave" unicode="&#xe0;" 
d="M1059 -40h-150l-129 220h-447l-130 -220h-150l458 780h91zM704 310l-148 252l-148 -252h296zM632 759h-125l-145 253h198z" />
    <glyph glyph-name="aacute" unicode="&#xe1;" 
d="M615 769h-126l73 253h198zM1059 -40h-150l-129 220h-447l-130 -220h-150l458 780h91zM704 310l-148 252l-148 -252h296z" />
    <glyph glyph-name="acircumflex" unicode="&#xe2;" 
d="M798 759h-198l-44 82l-43 -82h-198l197 253h88zM1059 -40h-150l-129 220h-447l-130 -220h-150l458 780h91zM704 310l-148 252l-148 -252h296z" />
    <glyph glyph-name="atilde" unicode="&#xe3;" 
d="M1059 -40h-150l-129 220h-447l-130 -220h-150l458 780h91zM704 310l-148 252l-148 -252h296zM426 752l-114 54q41 85 77 124t84 39q52 0 101 -48q29 -30 29 -31l4 1q8 5 42 92l117 -54q-40 -83 -77.5 -123t-83.5 -40q-56 0 -111 58q-18 20 -18 21q-2 0 -5.5 -2t-12 -19.5
t-32.5 -71.5z" />
    <glyph glyph-name="adieresis" unicode="&#xe4;" 
d="M682 729h-13q-44 0 -67 16.5t-31.5 43.5t-8.5 57q0 41 17.5 62t45 29t57.5 8q44 0 67 -16.5t31.5 -43t8.5 -57.5q0 -48 -32.5 -73.5t-74.5 -25.5zM443 729h-12q-45 0 -68 16.5t-31.5 43.5t-8.5 57q0 41 17.5 62t45 29t57.5 8q45 0 68 -16.5t31 -43t8 -57.5
q0 -48 -32 -73.5t-75 -25.5zM1059 -40h-150l-129 220h-447l-130 -220h-150l458 780h91zM704 310l-148 252l-148 -252h296z" />
    <glyph glyph-name="aring" unicode="&#xe5;" 
d="M585 782v46h-58v-22q0 -23 0.5 -23.5t36.5 -0.5h21zM704 310l-148 252l-147 -252h295zM1059 -40h-150l-129 220h-447l-130 -220h-150l414 705q-62 4 -62 129v22q0 63 42 103q38 31 110 31q70 0 108 -31q42 -40 42 -103v-22q0 -124 -61 -129z" />
    <glyph glyph-name="ae" unicode="&#xe6;" horiz-adv-x="1528" 
d="M1462 -40h-846v220h-304l-193 -220h-172l683 780h832v-130h-717v-196h618v-129h-618v-196h717v-129zM616 310v217l-190 -217h190z" />
    <glyph glyph-name="ccedilla" unicode="&#xe7;" horiz-adv-x="1022" 
d="M456 -66q-17 0 -49 3q-65 4 -119.5 21t-99.5 53q-55 45 -83 116.5t-28 162.5v92q0 130 50.5 209t142.5 114t217 35q127 0 210 -10t148 -47q55 -32 85 -88t30 -145h-130q0 63 -23 95.5t-84 49t-174 16.5q-111 0 -175 -9t-106 -42q-31 -24 -46.5 -65t-15.5 -113v-92
q0 -89 27.5 -138.5t89 -70t164.5 -20.5q117 0 183.5 8t110.5 33q28 15 38.5 36t10.5 84h130q0 -150 -108 -221q-88 -58 -238 -67l-10 -16q-5 0 -5 -2q0 -3 13 -12.5t27.5 -35t14.5 -66.5q0 -58 -34 -86.5t-83 -29.5h-141v117h113q11 0 15.5 2.5t4.5 5.5h-160z" />
    <glyph glyph-name="egrave" unicode="&#xe8;" horiz-adv-x="1013" 
d="M945 -40h-845v780h845v-130h-716v-196h618v-129h-618v-196h716v-129zM622 759h-126l-144 253h198z" />
    <glyph glyph-name="eacute" unicode="&#xe9;" horiz-adv-x="1013" 
d="M945 -40h-845v780h845v-130h-716v-196h618v-129h-618v-196h716v-129zM542 759h-126l72 253h198z" />
    <glyph glyph-name="ecircumflex" unicode="&#xea;" horiz-adv-x="1013" 
d="M945 -40h-845v780h845v-130h-716v-196h618v-129h-618v-196h716v-129zM764 759h-198l-43 81l-44 -81h-198l198 253h88z" />
    <glyph glyph-name="edieresis" unicode="&#xeb;" horiz-adv-x="1013" 
d="M945 -40h-845v780h845v-130h-716v-196h618v-129h-618v-196h716v-129zM652 749h-13q-44 0 -67 16.5t-31.5 43.5t-8.5 57q0 41 17.5 62t45 29t57.5 8q44 0 67 -16.5t31.5 -43t8.5 -57.5q0 -48 -32.5 -73.5t-74.5 -25.5zM413 749h-12q-45 0 -68 16.5t-31.5 43.5t-8.5 57
q0 41 17.5 62t45 29t57.5 8q45 0 68 -16.5t31 -43t8 -57.5q0 -48 -32 -73.5t-75 -25.5z" />
    <glyph glyph-name="igrave" unicode="&#xec;" horiz-adv-x="552" 
d="M489 -40h-426v129h148v521h-148v130h426v-130h-148v-521h148v-129zM351 759h-126l-144 253h198z" />
    <glyph glyph-name="iacute" unicode="&#xed;" horiz-adv-x="552" 
d="M489 -40h-426v129h148v521h-148v130h426v-130h-148v-521h148v-129zM340 759h-125l72 253h198z" />
    <glyph glyph-name="icircumflex" unicode="&#xee;" horiz-adv-x="609" 
d="M518 -40h-426v129h148v521h-148v130h426v-130h-148v-521h148v-129zM546 759h-198l-43 81l-44 -81h-198l198 253h88z" />
    <glyph glyph-name="idieresis" unicode="&#xef;" horiz-adv-x="552" 
d="M489 -40h-426v129h148v521h-148v130h426v-130h-148v-521h148v-129zM408 757h-13q-44 0 -67 16.5t-31.5 43.5t-8.5 57q0 41 17.5 62t45 29t57.5 8q44 0 67 -16.5t31.5 -43t8.5 -57.5q0 -48 -32.5 -73.5t-74.5 -25.5zM169 757h-12q-45 0 -68 16.5t-31.5 43.5t-8.5 57
q0 41 17.5 62t45 29t57.5 8q45 0 68 -16.5t31 -43t8 -57.5q0 -48 -32 -73.5t-75 -25.5z" />
    <glyph glyph-name="eth" unicode="&#xf0;" horiz-adv-x="1142" 
d="M645 -40h-435v310h-152v129h152v341h435q124 0 216.5 -35.5t143 -114.5t50.5 -209v-63q0 -129 -50.5 -208t-143 -114.5t-216.5 -35.5zM645 89q104 0 165.5 20t88.5 70t27 139v63q0 90 -27 139.5t-88.5 69.5t-165.5 20h-306v-211h318v-129h-318v-181h306z" />
    <glyph glyph-name="ntilde" unicode="&#xf1;" horiz-adv-x="1058" 
d="M958 -40h-117l-612 588v-588h-129v780h116l612 -588v588h130v-780zM416 695l-114 54q41 85 77 124t84 39q52 0 101 -48q29 -30 29 -31l4 1q8 5 42 92l117 -54q-40 -83 -77.5 -123t-83.5 -40q-56 0 -111 58q-18 20 -18 21q-2 0 -5.5 -2t-12 -19.5t-32.5 -71.5z" />
    <glyph glyph-name="ograve" unicode="&#xf2;" horiz-adv-x="1094" 
d="M579 -40q-82 0 -149 4.5t-123 21.5q-138 41 -191 169q-29 73 -29 163v92q0 358 427 358q82 0 149.5 -4.5t123.5 -21.5t103 -53q116 -92 117 -279v-92q0 -358 -428 -358zM579 89q167 0 232.5 48t65.5 181v92q0 133 -65.5 181t-232.5 48q-118 0 -185.5 -9t-111.5 -43
q-34 -25 -50 -65t-16 -112v-92q0 -133 66 -181t232 -48h65zM641 783h-126l-144 253h198z" />
    <glyph glyph-name="oacute" unicode="&#xf3;" horiz-adv-x="1094" 
d="M579 -40q-82 0 -149 4.5t-123 21.5q-138 41 -191 169q-29 73 -29 163v92q0 358 427 358q82 0 149.5 -4.5t123.5 -21.5t103 -53q116 -92 117 -279v-92q0 -358 -428 -358zM579 89q167 0 232.5 48t65.5 181v92q0 133 -65.5 181t-232.5 48q-118 0 -185.5 -9t-111.5 -43
q-34 -25 -50 -65t-16 -112v-92q0 -133 66 -181t232 -48h65zM605 783h-125l72 253h198z" />
    <glyph glyph-name="ocircumflex" unicode="&#xf4;" horiz-adv-x="1094" 
d="M579 -40q-82 0 -149 4.5t-123 21.5q-138 41 -191 169q-29 73 -29 163v92q0 358 427 358q82 0 149.5 -4.5t123.5 -21.5q138 -41 190 -169q30 -73 30 -163v-92q0 -358 -428 -358zM579 89q167 0 232.5 48t65.5 181v92q0 133 -65.5 181t-232.5 48q-118 0 -185.5 -9
t-111.5 -43q-34 -25 -50 -65t-16 -112v-92q0 -133 66 -181t232 -48h65zM788 783h-198l-43 82l-44 -82h-198l198 253h88z" />
    <glyph glyph-name="otilde" unicode="&#xf5;" horiz-adv-x="1094" 
d="M416 775l-114 54q41 85 77 124t84 39q52 0 101 -48q29 -30 29 -31l4 1q8 5 42 92l117 -54q-40 -83 -77.5 -123t-83.5 -40q-56 0 -111 58q-18 20 -18 21q-2 0 -5.5 -2t-12 -19.5t-32.5 -71.5zM579 -40q-82 0 -149 4.5t-123 21.5q-138 41 -191 169q-29 73 -29 163v92
q0 358 427 358q82 0 149.5 -4.5t123.5 -21.5q138 -41 190 -169q30 -73 30 -163v-92q0 -358 -428 -358zM579 89q167 0 232.5 48t65.5 181v92q0 133 -65.5 181t-232.5 48q-118 0 -185.5 -9t-111.5 -43q-34 -25 -50 -65t-16 -112v-92q0 -133 66 -181t232 -48h65z" />
    <glyph glyph-name="odieresis" unicode="&#xf6;" horiz-adv-x="1094" 
d="M579 -40q-82 0 -149 4.5t-123 21.5q-138 41 -191 169q-29 73 -29 163v92q0 358 427 358q82 0 149.5 -4.5t123.5 -21.5q138 -41 190 -169q30 -73 30 -163v-92q0 -358 -428 -358zM579 89q167 0 232.5 48t65.5 181v92q0 133 -65.5 181t-232.5 48q-118 0 -185.5 -9
t-111.5 -43q-34 -25 -50 -65t-16 -112v-92q0 -133 66 -181t232 -48h65zM652 779h-13q-44 0 -67 16.5t-31.5 43.5t-8.5 57q0 41 17.5 62t45 29t57.5 8q44 0 67 -16.5t31.5 -43t8.5 -57.5q0 -48 -32.5 -73.5t-74.5 -25.5zM413 779h-12q-45 0 -68 16.5t-31.5 43.5t-8.5 57
q0 41 17.5 62t45 29t57.5 8q45 0 68 -16.5t31 -43t8 -57.5q0 -48 -32 -73.5t-75 -25.5z" />
    <glyph glyph-name="divide" unicode="&#xf7;" horiz-adv-x="690" 
d="M345 321q-33 0 -61.5 28t-28.5 61t28.5 61.5t61.5 28.5t61 -28.5t28 -61.5t-28 -61t-61 -28zM656 160h-623v130h623v-130zM345 -50q-33 0 -61.5 28.5t-28.5 61.5t28.5 61t61.5 28t61 -28t28 -61t-28 -61.5t-61 -28.5z" />
    <glyph glyph-name="oslash" unicode="&#xf8;" horiz-adv-x="1097" 
d="M710 633q-5 0 -20 1q-40 5 -109 5q-118 0 -185 -9t-112 -43q-34 -25 -50 -65t-16 -112v-92q0 -67 10 -103t20 -43zM581 89q167 0 232.5 48t65.5 181v92q0 75 -13.5 114t-32.5 50l-474 -474q15 -11 222 -11zM199 -60l-92 92l50 49q-27 24 -47.5 89t-20.5 148v92
q0 130 53 209t149 114t225 35q109 0 180.5 -6t114.5 -27l52 53l92 -92l-30 -30q32 -24 58 -93t26 -163v-92q0 -130 -53 -209t-149 -114t-226 -35q-117 0 -196 8.5t-124 34.5z" />
    <glyph glyph-name="ugrave" unicode="&#xf9;" horiz-adv-x="1044" 
d="M552 -40q-76 0 -139 4.5t-115.5 21.5t-97.5 54q-53 45 -80 116.5t-27 161.5v436h129v-436q0 -89 26 -139t85 -70t159 -20q108 0 169 8.5t100 42.5q31 24 45.5 65t14.5 113v436h130v-436q0 -129 -49 -207.5t-138.5 -114.5t-211.5 -36zM612 773h-126l-144 253h197z" />
    <glyph glyph-name="uacute" unicode="&#xfa;" horiz-adv-x="1044" 
d="M552 -40q-76 0 -139 4.5t-115.5 21.5t-97.5 54q-53 45 -80 116.5t-27 161.5v436h129v-436q0 -89 26 -139t85 -70t159 -20q108 0 169 8.5t100 42.5q31 24 45.5 65t14.5 113v436h130v-436q0 -129 -49 -207.5t-138.5 -114.5t-211.5 -36zM585 773h-126l73 253h197z" />
    <glyph glyph-name="ucircumflex" unicode="&#xfb;" horiz-adv-x="1044" 
d="M552 -40q-76 0 -139 4.5t-115.5 21.5t-97.5 54q-53 45 -80 116.5t-27 161.5v436h129v-436q0 -89 26 -139t85 -70t159 -20q108 0 169 8.5t100 42.5q31 24 45.5 65t14.5 113v436h130v-436q0 -129 -49 -207.5t-138.5 -114.5t-211.5 -36zM763 773h-198l-43 82l-43 -82h-198
l197 253h88z" />
    <glyph glyph-name="udieresis" unicode="&#xfc;" horiz-adv-x="1044" 
d="M552 -40q-76 0 -139 4.5t-115.5 21.5t-97.5 54q-53 45 -80 116.5t-27 161.5v436h129v-436q0 -89 26 -139t85 -70t159 -20q108 0 169 8.5t100 42.5q31 24 45.5 65t14.5 113v436h130v-436q0 -129 -49 -207.5t-138.5 -114.5t-211.5 -36zM652 749h-13q-44 0 -67 16.5
t-31.5 43.5t-8.5 57q0 41 17.5 62t45 29t57.5 8q44 0 67 -16.5t31.5 -43t8.5 -57.5q0 -48 -32.5 -73.5t-74.5 -25.5zM413 749h-12q-45 0 -68 16.5t-31.5 43.5t-8.5 57q0 41 17.5 62t45 29t57.5 8q45 0 68 -16.5t31 -43t8 -57.5q0 -48 -32 -73.5t-75 -25.5z" />
    <glyph glyph-name="yacute" unicode="&#xfd;" horiz-adv-x="1093" 
d="M581 753h-126l73 253h197zM611 -40h-130v339l-437 441h182l320 -323l320 323h182l-437 -441v-339z" />
    <glyph glyph-name="thorn" unicode="&#xfe;" horiz-adv-x="994" 
d="M229 -40h-129v780h129v-140h317q135 0 217.5 -32t120 -84.5t37.5 -113.5v-40q0 -61 -37.5 -113.5t-120 -84.5t-217.5 -32h-317v-140zM546 229q104 0 157 12.5t70.5 35t17.5 53.5v40q0 31 -17.5 53.5t-70.5 34.5t-157 12h-317v-241h317z" />
    <glyph glyph-name="ydieresis" unicode="&#xff;" horiz-adv-x="1092" 
d="M611 -40h-130v339l-437 441h182l320 -323l320 323h182l-437 -441v-339zM688 749h-13q-44 0 -67 16.5t-31.5 43.5t-8.5 57q0 41 17.5 62t45 29t57.5 8q44 0 67 -16.5t31.5 -43t8.5 -57.5q0 -48 -32.5 -73.5t-74.5 -25.5zM449 749h-12q-45 0 -68 16.5t-31.5 43.5t-8.5 57
q0 41 17.5 62t45 29t57.5 8q45 0 68 -16.5t31 -43t8 -57.5q0 -48 -32 -73.5t-75 -25.5z" />
    <glyph glyph-name="Lslash" unicode="&#x141;" horiz-adv-x="1211" 
d="M1160 -40h-846v234l-165 -166l-92 92l257 257v363h129v-234l166 165l91 -91l-257 -257v-234h717v-129z" />
    <glyph glyph-name="lslash" unicode="&#x142;" horiz-adv-x="763" 
d="M595 -40h-426v129h148v105l-98 -94l-92 92l190 185v233h-148v130h426v-130h-149v-104l95 94l91 -91l-186 -186v-234h149v-129z" />
    <glyph glyph-name="OE" unicode="&#x152;" horiz-adv-x="1789" 
d="M579 -40q-82 0 -149 4.5t-123 20.5q-138 42 -191 170q-29 72 -29 163v92q0 358 427 358q152 0 252 -10t111 -23v19h846v-130h-716v-195h617v-130h-617v-195h716v-130h-846v19q0 1 -1 1q-6 0 -29 -5q-135 -29 -268 -29zM579 89q167 0 232.5 48t65.5 181v92
q0 133 -65.5 181t-232.5 48h-65q-166 0 -232 -48t-66 -181v-92q0 -133 66 -181t232 -48h65z" />
    <glyph glyph-name="oe" unicode="&#x153;" horiz-adv-x="1789" 
d="M579 -40q-82 0 -149 4.5t-123 20.5q-138 42 -191 170q-29 72 -29 163v92q0 358 427 358q152 0 252 -10t111 -23v19h846v-130h-716v-195h617v-130h-617v-195h716v-130h-846v19q0 1 -1 1q-6 0 -29 -5q-135 -29 -268 -29zM579 89q167 0 232.5 48t65.5 181v92
q0 133 -65.5 181t-232.5 48h-65q-166 0 -232 -48t-66 -181v-92q0 -133 66 -181t232 -48h65z" />
    <glyph glyph-name="Scaron" unicode="&#x160;" horiz-adv-x="998" 
d="M527 -40q-119 0 -197 9t-137 43q-51 29 -78 79.5t-27 105.5v84h129v-84q0 -39 20.5 -62.5t75 -34.5t157.5 -11q164 0 236.5 16t72.5 73v33q0 30 -7 41t-33 22q-39 17 -101 21.5t-168 4.5q-82 0 -148.5 7.5t-115.5 28.5q-53 24 -85.5 72.5t-32.5 108.5v33q0 82 52 129.5
t139 68t191 20.5q119 0 197 -9t137 -43q51 -30 78 -80t27 -105v-84h-130v84q0 39 -20 62.5t-74.5 34.5t-157.5 11q-164 0 -237 -16t-73 -73v-33q0 -30 7.5 -41t33.5 -21q38 -17 100.5 -21.5t168.5 -4.5q178 0 264 -37q53 -24 85.5 -72.5t32.5 -108.5v-33q0 -82 -52 -130
q-97 -88 -330 -88zM543 783h-89l-197 253h198l43 -81l44 81h198z" />
    <glyph glyph-name="Ycircumflex" unicode="&#x176;" horiz-adv-x="1092" 
d="M611 -40h-130v339l-437 441h182l320 -323l320 323h182l-437 -441v-339zM787 769h-198l-43 82l-43 -82h-198l197 253h88z" />
    <glyph glyph-name="Ydieresis" unicode="&#x178;" horiz-adv-x="1092" 
d="M611 -40h-130v339l-437 441h182l320 -323l320 323h182l-437 -441v-339zM688 749h-13q-44 0 -67 16.5t-31.5 43.5t-8.5 57q0 41 17.5 62t45 29t57.5 8q44 0 67 -16.5t31.5 -43t8.5 -57.5q0 -48 -32.5 -73.5t-74.5 -25.5zM449 749h-12q-45 0 -68 16.5t-31.5 43.5t-8.5 57
q0 41 17.5 62t45 29t57.5 8q45 0 68 -16.5t31 -43t8 -57.5q0 -48 -32 -73.5t-75 -25.5z" />
    <glyph glyph-name="Zcaron" unicode="&#x17d;" horiz-adv-x="1015" 
d="M949 -40h-883v115l660 536h-660v129h883v-116l-660 -535h660v-129zM551 749h-88l-197 253h198l43 -81l44 81h198z" />
    <glyph glyph-name="circumflex" unicode="&#x2c6;" horiz-adv-x="551" 
d="M517 539h-198l-44 82l-43 -82h-198l197 253h89z" />
    <glyph glyph-name="caron" unicode="&#x2c7;" horiz-adv-x="485" 
d="M287 528h-89l-197 253h198l43 -81l44 81h198z" />
    <glyph glyph-name="ring" unicode="&#x2da;" horiz-adv-x="377" 
d="M196 502q-32 0 -59.5 5t-51.5 25t-31 49.5t-7 67.5q0 26 10 52q26 71 124 71q31 0 58.5 -4.5t51.5 -24.5t31 -50t7 -67q0 -27 -10 -53q-26 -71 -123 -71zM196 604q25 0 29 5l1.5 1.5t0.5 26.5v26t-1 2l-2 2t-6 2t-37 1h-16q-10 -1 -14 -4l-1 -1q-1 -1 -1 -28
q0 -25 0.5 -27t8 -4t38.5 -2z" />
    <glyph glyph-name="ogonek" unicode="&#x2db;" horiz-adv-x="257" 
d="M125 -95h80v-133h-87q-30 0 -60.5 13.5t-50.5 42t-20 73.5q19 55 51 113.5t60 95.5l132 -3l-105 -198v-4z" />
    <glyph glyph-name="tilde" unicode="&#x2dc;" horiz-adv-x="528" 
d="M149 628l-112 53q41 84 77.5 123.5t83.5 39.5q53 0 101 -49q28 -28 28 -30q5 0 8.5 5t14.5 29l26 58l115 -53q-42 -86 -79 -124.5t-83 -38.5q-30 0 -56.5 15t-44.5 33q-28 30 -28 31h1q-4 0 -8 -6.5t-44 -85.5z" />
    <glyph glyph-name="quoteleft" unicode="&#x2018;" horiz-adv-x="280" 
d="M235 508h-102l-112 278h165z" />
    <glyph glyph-name="quoteright" unicode="&#x2019;" horiz-adv-x="281" 
d="M147 508h-103l50 278h165z" />
    <glyph glyph-name="quotesinglbase" unicode="&#x201a;" horiz-adv-x="281" 
d="M142 -156h-103l50 278h165z" />
    <glyph glyph-name="quotedblleft" unicode="&#x201c;" horiz-adv-x="438" 
d="M235 508h-102l-112 278h165zM418 508h-103l-112 278h165z" />
    <glyph glyph-name="quotedblright" unicode="&#x201d;" horiz-adv-x="453" 
d="M147 508h-103l50 278h165zM329 508h-102l49 278h165z" />
    <glyph glyph-name="quotedblbase" unicode="&#x201e;" horiz-adv-x="448" 
d="M147 -42h-103l50 278h165zM329 -42h-102l49 278h165z" />
    <glyph glyph-name="lira" unicode="&#x20a4;" horiz-adv-x="1101" 
d="M1008 -40h-820v129h49v61h-167v130h167v18h-167v130h167v47q0 94 48.5 152t132 85.5t189.5 27.5h55q99 0 183.5 -20.5t136 -73.5t51.5 -152h-130q0 72 -54 94t-187 22h-55q-132 0 -186.5 -29t-54.5 -106v-47h475v-130h-475v-18h475v-130h-475v-61h642v-129z" />
    <glyph glyph-name="Euro" unicode="&#x20ac;" horiz-adv-x="1160" 
d="M765 -54q-79 0 -143.5 4.5t-118.5 21.5t-100 54.5t-73 88.5t-31 96h-229v129h222v19h-222v130h229q15 136 123.5 200.5t279.5 64.5h63q95 0 174.5 -17t155.5 -61l-64 -112q-69 40 -140 50t-189 10q-142 0 -204.5 -32.5t-68.5 -102.5h412v-130h-419v-19h419v-129h-412
q5 -69 67.5 -102.5t205.5 -33.5q118 0 189 10.5t140 50.5l64 -113q-76 -43 -155.5 -60t-174.5 -17z" />
    <glyph glyph-name="uni2116" unicode="&#x2116;" horiz-adv-x="1000" 
 />
    <glyph glyph-name="trademark" unicode="&#x2122;" horiz-adv-x="895" 
d="M270 436h-99v250h-145v99h388v-99h-144v-250zM685 436h-67l-79 131v-130h-99v348h83l128 -212l127 212h84v-348h-99v129z" />
    <glyph glyph-name="lessequal" unicode="&#x2264;" horiz-adv-x="756" 
d="M652 105l-590 196v105l590 196l41 -123l-378 -126l378 -126zM685 -52h-623v129h623v-129z" />
    <glyph glyph-name="greaterequal" unicode="&#x2265;" horiz-adv-x="756" 
d="M103 95l-41 122l379 126l-379 126l41 123l590 -196v-105zM693 -52h-623v129h623v-129z" />
    <glyph glyph-name="uni0009" horiz-adv-x="508" 
 />
    </font>
</defs>
</svg>
