<?xml version="1.0" standalone="no"?>
<!DOCTYPE svg PUBLIC "-//W3C//DTD SVG 1.1//EN" "http://www.w3.org/Graphics/SVG/1.1/DTD/svg11.dtd" >
<svg xmlns="http://www.w3.org/2000/svg" xmlns:xlink="http://www.w3.org/1999/xlink" version="1.1">
<metadata>
Created by FontForge 20201107 at Fri Nov 20 00:59:35 2020
 By 
Heinch Thin (c)Almarkhatype 2020. All Rights Reserved
</metadata>
<defs>
<font id="Heinch-Thin" horiz-adv-x="939" >
  <font-face 
    font-family="Heinch Thin"
    font-weight="400"
    font-stretch="normal"
    units-per-em="2048"
    panose-1="2 0 5 0 0 0 0 0 0 0"
    ascent="1699"
    descent="-349"
    x-height="690"
    cap-height="690"
    bbox="-53 -190 1623 926"
    underline-thickness="50"
    underline-position="-100"
    unicode-range="U+001D-2265"
  />
<missing-glyph horiz-adv-x="500" 
 />
    <glyph glyph-name=".notdef" horiz-adv-x="500" 
 />
    <glyph glyph-name="uni0000" horiz-adv-x="0" 
 />
    <glyph glyph-name="uni0000" horiz-adv-x="0" 
 />
    <glyph glyph-name="nonmarkingreturn" horiz-adv-x="682" 
 />
    <glyph glyph-name="space" unicode=" " horiz-adv-x="398" 
 />
    <glyph glyph-name="space" unicode="&#xa0;" horiz-adv-x="398" 
 />
    <glyph glyph-name="exclam" unicode="!" horiz-adv-x="253" 
d="M133 158h-13l-25 532h63zM126 10q-34 0 -39 39q0 35 39 40q35 0 40 -40q0 -34 -40 -39z" />
    <glyph glyph-name="quotedbl" unicode="&#x22;" horiz-adv-x="223" 
d="M69 558h-10l-20 178h50zM164 558h-10l-20 178h50z" />
    <glyph glyph-name="numbersign" unicode="#" horiz-adv-x="1011" 
d="M651 5l-28 9l51 148h-463l-54 -157l-28 9l51 148h-118v30h128l107 316h-118v29h128l53 158l28 -10l-50 -148h463l53 158l28 -10l-50 -148h117v-29h-127l-107 -316h117v-30h-127zM683 192l108 316h-463l-107 -316h462z" />
    <glyph glyph-name="dollar" unicode="$" horiz-adv-x="709" 
d="M418 10h-29v78h-70v-78h-29v79q-110 7 -158 42t-48 97v22h29v-22q0 -48 39 -75t138 -34v217q-103 4 -154.5 32t-51.5 93v25q0 61 53.5 90.5t152.5 34.5v79h29v-79h70v79h29v-79q110 -7 158 -42t48 -98v-22h-29v22q0 48 -39 75.5t-138 34.5v-217q103 -3 154.5 -31.5
t51.5 -93.5v-25q0 -62 -53.5 -91t-152.5 -34v-79zM389 365v217h-70v-217h70zM290 366v215q-91 -5 -134 -28t-43 -67q0 -39 9.5 -64t47.5 -38.5t120 -17.5zM389 118v218h-70v-218h70zM418 119q91 5 134 28t43 67q0 39 -9.5 64t-47.5 39t-120 18v-216z" />
    <glyph glyph-name="percent" unicode="%" horiz-adv-x="1034" 
d="M209 2l-22 20l637 684l22 -20zM273 333q-54 0 -90 6t-64 31q-44 41 -44 127v47q0 129 99 156q31 8 84 8q46 0 80 -6t62 -31q44 -41 44 -127v-47q0 -131 -98 -156q-32 -8 -73 -8zM273 362q76 0 108.5 30t32.5 105v47q0 40 -9 65q-19 55 -77 64q-31 6 -83 6q-75 0 -108 -30
t-33 -105v-47q0 -40 9 -66q20 -54 78 -64q31 -5 82 -5zM787 0q-54 0 -90 6t-64 31q-44 41 -44 127v47q0 87 44 127q28 25 64 32q32 5 75 5q55 0 87 -8t55 -29q44 -41 44 -127v-47q0 -86 -44 -127q-23 -21 -54.5 -29t-72.5 -8zM787 29q76 0 108.5 30t32.5 105v47
q0 75 -32.5 105t-108.5 30q-51 0 -82 -5.5t-52 -24.5q-35 -30 -35 -105v-47q0 -40 10 -65q19 -55 77 -64q31 -6 82 -6z" />
    <glyph glyph-name="ampersand" unicode="&#x26;" horiz-adv-x="899" 
d="M830 -3l-115 73q-51 -46 -126.5 -57.5t-196.5 -11.5q-100 0 -175.5 11t-111.5 55q-23 30 -23 77v33q0 81 48.5 109.5t163.5 47.5q-73 45 -109 74.5t-47 58t-11 73.5q0 87 59 127.5t184 40.5h46q116 0 178.5 -37.5t62.5 -130.5q0 -55 -15 -95t-62 -68t-139 -46l-67 -13
l336 -211q16 32 16 62v72h29v-72q0 -39 -22 -76l112 -71zM336 341q127 23 190 44.5t82.5 56.5t19.5 98q0 78 -54.5 108.5t-157.5 30.5h-46q-88 0 -134 -17.5t-63 -52.5t-17 -87q0 -53 39 -86.5t141 -94.5zM445 31q88 0 146 12.5t100 41.5l-360 225q-107 -19 -145 -30
q-47 -14 -62 -40q-13 -19 -13 -63v-33q0 -52 35 -76t98 -30.5t148 -6.5h53z" />
    <glyph glyph-name="quotesingle" unicode="'" horiz-adv-x="191" 
d="M103 558h-10l-20 178h50z" />
    <glyph glyph-name="parenleft" unicode="(" horiz-adv-x="327" 
d="M248 14q-157 100 -157 343v134q0 242 157 343l16 -25q-144 -91 -144 -318v-134q0 -227 144 -318z" />
    <glyph glyph-name="parenright" unicode=")" horiz-adv-x="327" 
d="M79 14l-16 25q143 91 143 318v134q0 227 -143 318l16 25q157 -101 157 -343v-134q0 -243 -157 -343z" />
    <glyph glyph-name="asterisk" unicode="*" horiz-adv-x="308" 
d="M169 583h-30v74l-76 -60l-18 23l85 68l-85 68l18 23l76 -60v74h30v-74l75 60l19 -23l-86 -68l86 -68l-19 -23l-75 60v-74z" />
    <glyph glyph-name="plus" unicode="+" horiz-adv-x="632" 
d="M330 210h-29v212h-247v29h247v209h29v-209h247v-29h-247v-212z" />
    <glyph glyph-name="comma" unicode="," horiz-adv-x="177" 
d="M47 -88h-9l32 178h49z" />
    <glyph glyph-name="hyphen" unicode="-" horiz-adv-x="551" 
d="M525 314h-499v29h499v-29z" />
    <glyph glyph-name="hyphen" unicode="&#xad;" horiz-adv-x="551" 
d="M525 314h-499v29h499v-29z" />
    <glyph glyph-name="period" unicode="." horiz-adv-x="192" 
d="M88 9q-35 0 -40 40q0 34 40 39q34 0 39 -39q0 -35 -39 -40z" />
    <glyph glyph-name="slash" unicode="/" horiz-adv-x="526" 
d="M87 18h-34l393 679h34z" />
    <glyph glyph-name="zero" unicode="0" horiz-adv-x="873" 
d="M464 6q-104 0 -173.5 11t-121.5 58q-81 72 -81 239v91q0 115 36 182.5t107.5 97t177.5 29.5q103 0 172.5 -11.5t121.5 -57.5q81 -73 81 -240v-91q0 -115 -36 -182.5t-107.5 -96.5t-176.5 -29zM464 35q97 0 161.5 26.5t97 87.5t32.5 165v91q0 104 -32.5 165.5t-97 87.5
t-161.5 26h-55q-151 0 -221.5 -62.5t-70.5 -216.5v-91q0 -104 32.5 -165t97.5 -87.5t162 -26.5h55z" />
    <glyph glyph-name="one" unicode="1" horiz-adv-x="360" 
d="M260 20h-29v651h-173v29h202v-680z" />
    <glyph glyph-name="two" unicode="2" horiz-adv-x="844" 
d="M762 20h-671v187q0 67 36 103.5t105 50.5t168.5 14t163 5.5t105.5 24.5q34 15 50 40.5t16 67.5v34q0 77 -74 107.5t-207 30.5q-104 0 -168 -8q-166 -20 -166 -150v-34h-29v34q0 93 71 140t239 47h53q96 0 165.5 -16t107 -52.5t37.5 -98.5v-34q0 -66 -36 -102.5
t-105 -50.5t-168 -14t-163 -5t-106 -25q-34 -15 -50 -40.5t-16 -68.5v-157h642v-30z" />
    <glyph glyph-name="three" unicode="3" horiz-adv-x="850" 
d="M448 7q-106 0 -173 8t-116 38q-74 46 -74 142v34h29v-34q0 -78 62.5 -118t218.5 -40q104 0 179 10t115 39.5t40 88.5v34q0 42 -16 67t-50 41q-38 17 -95 23t-136 6v29q79 0 136 6t95 24q34 15 50 40.5t16 67.5v34q0 77 -74.5 107.5t-206.5 30.5q-104 0 -168 -8
q-166 -20 -166 -150v-34h-29v34q0 93 71 140t239 47h53q96 0 165.5 -16t107 -52.5t37.5 -98.5v-34q0 -112 -127 -152q70 -27 98.5 -61t28.5 -91v-34q0 -93 -82.5 -130.5t-227.5 -37.5z" />
    <glyph glyph-name="four" unicode="4" horiz-adv-x="872" 
d="M707 20h-30v179h-617v41l595 460h52v-471h98v-30h-98v-179zM677 229v451l-584 -451h584z" />
    <glyph glyph-name="five" unicode="5" horiz-adv-x="844" 
d="M472 7h-70q-169 0 -239.5 47.5t-70.5 140.5v34h29v-34q0 -78 62.5 -118t218.5 -40h53q135 0 208 30.5t73 107.5v34q0 42 -16 67t-50 41q-68 29 -215 29h-351v354h636v-29h-606v-296h321q99 0 168.5 -14t105.5 -50t36 -102v-34q0 -90 -77 -128.5t-216 -39.5z" />
    <glyph glyph-name="six" unicode="6" horiz-adv-x="859" 
d="M458 7q-106 0 -173 8t-116 38q-74 46 -74 142v352q0 62 37 98q71 69 273 69q106 0 173 -7.5t116 -37.5q74 -46 74 -142v-34h-29v34q0 78 -63 118t-218 40q-104 0 -178.5 -10t-115 -39.5t-40.5 -88.5v-218q51 44 120 57.5t161 13.5h53q100 0 169 -14t105 -50t36 -103v-58
q0 -93 -82.5 -130.5t-227.5 -37.5zM458 37q132 0 206.5 30t74.5 108v58q0 43 -16 68t-50 40q-42 20 -105.5 25t-162.5 5q-146 0 -215 -30q-34 -15 -50 -40t-16 -68v-38q0 -78 62.5 -118t218.5 -40h53z" />
    <glyph glyph-name="seven" unicode="7" horiz-adv-x="721" 
d="M320 20h-34l357 649l-594 2v29l625 -1l-1 -37z" />
    <glyph glyph-name="eight" unicode="8" horiz-adv-x="856" 
d="M454 7h-53q-145 0 -227.5 37.5t-82.5 130.5v34q0 57 29 91t98 61q-127 40 -127 152v34q0 62 37.5 98.5t107 52.5t165.5 16h53q96 0 165.5 -16t107 -52.5t37.5 -98.5v-34q0 -112 -127 -152q70 -27 98.5 -61t28.5 -91v-34q0 -62 -37.5 -98.5t-106.5 -53t-166 -16.5z
M454 375q147 0 215 30q34 15 50 40.5t16 67.5v34q0 77 -74 107.5t-207 30.5h-53q-132 0 -206.5 -30.5t-74.5 -107.5v-34q0 -42 16 -67.5t50 -40.5q42 -19 105.5 -24.5t162.5 -5.5zM454 37q133 0 207 30.5t74 107.5v34q0 42 -16 67t-50 41q-68 29 -215 29h-53
q-146 0 -215 -29q-34 -16 -50 -41t-16 -67v-34q0 -78 74.5 -108t206.5 -30h53z" />
    <glyph glyph-name="nine" unicode="9" horiz-adv-x="859" 
d="M453 7q-106 0 -173 8t-116 38q-74 46 -74 142v34h29v-34q0 -78 63 -118t218 -40q104 0 179 10t115 39.5t40 88.5v217q-51 -44 -120 -57.5t-161 -13.5h-53q-100 0 -169 14t-105 50.5t-36 102.5v59q0 62 37.5 98.5t107 52.5t165.5 16h53q168 0 239 -47t71 -140v-352
q0 -93 -82.5 -130.5t-227.5 -37.5zM453 351q147 0 215 29q34 16 50 41t16 67v39q0 78 -63 118t-218 40h-53q-133 0 -207 -30.5t-74 -107.5v-59q0 -42 16 -67t50 -41q42 -19 105.5 -24t162.5 -5z" />
    <glyph glyph-name="colon" unicode=":" horiz-adv-x="181" 
d="M90 479q-34 0 -39 40q0 34 39 39q35 0 40 -39q0 -35 -40 -40zM90 109q-34 0 -39 39q0 35 39 40q35 0 40 -40q0 -35 -40 -39z" />
    <glyph glyph-name="semicolon" unicode=";" horiz-adv-x="211" 
d="M118 345q-35 0 -40 40q0 34 40 39q34 0 39 -39q0 -35 -39 -40zM70 -124h-9l32 178h49z" />
    <glyph glyph-name="semicolon" unicode="&#x37e;" horiz-adv-x="211" 
d="M118 345q-35 0 -40 40q0 34 40 39q34 0 39 -39q0 -35 -39 -40zM70 -124h-9l32 178h49z" />
    <glyph glyph-name="less" unicode="&#x3c;" horiz-adv-x="631" 
d="M562 78l-508 169v32l508 170l10 -28l-474 -158l474 -157z" />
    <glyph glyph-name="equal" unicode="=" horiz-adv-x="571" 
d="M535 339h-499v29h499v-29zM535 144h-499v29h499v-29z" />
    <glyph glyph-name="greater" unicode="&#x3e;" horiz-adv-x="630" 
d="M67 78l-9 28l473 157l-473 158l9 28l508 -170v-32z" />
    <glyph glyph-name="question" unicode="?" horiz-adv-x="782" 
d="M335 158h-29v40q0 138 107 161q34 7 78 7q67 0 116 11.5t75.5 41t26.5 85.5v33q0 77 -74 107.5t-207 30.5q-114 0 -188 -12t-110 -46t-36 -99v-34h-29v34q0 93 71 140t239 47h53q97 0 166 -16q144 -34 144 -152v-33q0 -122 -117 -153q-56 -14 -130 -14q-84 0 -120 -29
t-36 -110v-40zM320 10q-34 0 -39 39q0 35 39 40q35 0 40 -40q0 -34 -40 -39z" />
    <glyph glyph-name="at" unicode="@" horiz-adv-x="1039" 
d="M556 -3q-130 0 -216 11t-151 57q-102 72 -102 240v91q0 115 45.5 182.5t134.5 97t220 29.5h69q132 0 221 -29.5t134 -97t45 -182.5v-91q-1 -62 -34 -102t-98 -40q-74 1 -109 74q-35 -49 -84 -61.5t-126 -12.5q-97 0 -146.5 37t-49.5 127v47q0 90 49.5 127t146.5 37
q64 0 110 -8.5t89 -46.5v55h30v-214q0 -65 18.5 -96.5t73.5 -34.5q49 1 74.5 32.5t26.5 79.5v91q0 153 -90.5 216t-280.5 63q-127 0 -209.5 -10.5t-139.5 -51.5q-45 -32 -68 -84.5t-23 -132.5v-91q0 -153 90.5 -216t280.5 -63h69q95 0 156 13l6 -29q-64 -13 -162 -13z
M538 192q88 0 127 30.5t39 104.5v47q0 40 -10 65q-22 54 -92 64q-37 6 -97 6q-88 0 -127 -30t-39 -105v-47q0 -39 10 -65q22 -54 91 -64q38 -6 98 -6z" />
    <glyph glyph-name="A" unicode="A" horiz-adv-x="889" 
d="M860 10h-34l-129 220h-505l-129 -220h-35l399 680h34zM679 260l-235 400l-235 -400h470z" />
    <glyph glyph-name="B" unicode="B" horiz-adv-x="918" 
d="M513 10h-414v680h389q97 0 171.5 -13.5t117.5 -47.5t43 -94v-31q0 -51 -29 -83.5t-98 -55.5l59 -22q43 -19 67.5 -52.5t24.5 -79.5v-34q0 -96 -88 -134q-43 -19 -103.5 -26t-139.5 -7zM488 379q101 0 168.5 9.5t100.5 36.5t33 79v31q0 68 -78 97t-224 29h-360v-282h360z
M513 40q157 0 232 29q36 16 53 41t17 67v34q0 77 -80 107.5t-222 30.5h-385v-309h385z" />
    <glyph glyph-name="C" unicode="C" horiz-adv-x="922" 
d="M499 -18q-117 0 -194.5 11t-135.5 57q-92 73 -92 240v92q0 115 41 182.5t121.5 96.5t197.5 29q125 0 200.5 -9t133.5 -42q44 -26 66.5 -63t22.5 -76h-30q0 45 -32 81.5t-105 58t-194 21.5q-113 0 -186.5 -10.5t-125.5 -51.5q-81 -64 -81 -217v-92q0 -154 82 -216.5
t249 -62.5q119 0 193 9t126 39q74 43 74 113h30q0 -89 -87.5 -139.5t-273.5 -50.5z" />
    <glyph glyph-name="D" unicode="D" horiz-adv-x="919" 
d="M484 10h-385v680h385q118 0 198 -29t121 -96.5t41 -182.5v-63q0 -116 -41 -183.5t-121 -96.5t-198 -29zM484 40q168 0 249.5 62.5t81.5 216.5v63q0 154 -81.5 216.5t-249.5 62.5h-356v-621h356z" />
    <glyph glyph-name="E" unicode="E" horiz-adv-x="889" 
d="M844 10h-745v680h745v-29h-716v-296h618v-29h-618v-296h716v-30z" />
    <glyph glyph-name="F" unicode="F" horiz-adv-x="875" 
d="M128 10h-29v680h745v-29h-716v-345h618v-30h-618v-276z" />
    <glyph glyph-name="G" unicode="G" horiz-adv-x="941" 
d="M499 -18q-117 0 -194.5 11t-135.5 57q-92 73 -92 240v92q0 115 41 182.5t121.5 96.5t197.5 29q125 0 200.5 -9t133.5 -42q44 -26 66.5 -63t22.5 -76h-30q0 45 -32.5 81.5t-105 58t-193.5 21.5q-113 0 -186.5 -10.5t-125.5 -51.5q-81 -64 -81 -217v-92q0 -154 81.5 -216.5
t249.5 -62.5q119 0 193 9t126 39q74 43 74 123v139h-352v30h382v-169q0 -200 -361 -200z" />
    <glyph glyph-name="H" unicode="H" horiz-adv-x="958" 
d="M858 10h-30v325h-699v-325h-29v680h29v-326h699v326h30v-680z" />
    <glyph glyph-name="I" unicode="I" horiz-adv-x="429" 
d="M376 10h-326v29h148v621h-148v30h326v-30h-148v-621h148v-29z" />
    <glyph glyph-name="J" unicode="J" horiz-adv-x="802" 
d="M399 -4q-106 0 -172.5 8t-115.5 37q-38 24 -56 59t-18 73h29q0 -46 27 -79.5t88.5 -50.5t164.5 -17q95 0 155.5 7.5t106.5 34.5q71 39 71 128v494h29v-494q0 -102 -81.5 -151t-227.5 -49z" />
    <glyph glyph-name="K" unicode="K" horiz-adv-x="860" 
d="M822 10h-37l-133 177q-35 48 -74 80.5t-100 49.5t-165 17h-184v-324h-29v680h29v-325h184q104 0 165 17.5t100 50t74 80.5l133 177h37l-147 -195q-33 -47 -76.5 -82.5t-124.5 -62.5q81 -27 124.5 -62.5t76.5 -82.5z" />
    <glyph glyph-name="L" unicode="L" horiz-adv-x="871" 
d="M844 10h-745v680h29v-650h716v-30z" />
    <glyph glyph-name="M" unicode="M" horiz-adv-x="1069" 
d="M969 10h-29v637l-388 -636h-35l-388 636v-637h-29v680h38q125 -209 187 -299q20 -29 42 -63q45 -71 167 -290l397 652h38v-680z" />
    <glyph glyph-name="N" unicode="N" horiz-adv-x="956" 
d="M857 10h-46l-683 656v-656h-29v680h46l682 -655v655h30v-680z" />
    <glyph glyph-name="O" unicode="O" horiz-adv-x="972" 
d="M518 -18q-122 0 -203.5 11t-142.5 57q-96 73 -96 240v92q0 116 43.5 183.5t127.5 96t206 28.5h65q123 0 207 -29t127.5 -96t43.5 -183v-92q0 -116 -43.5 -183.5t-127.5 -96t-207 -28.5zM518 11q179 0 263.5 63t84.5 216v92q0 152 -84.5 215.5t-263.5 63.5
q-119 0 -196.5 -10.5t-131.5 -51.5q-85 -64 -85 -217v-92q0 -152 85 -215.5t263 -63.5h65z" />
    <glyph glyph-name="P" unicode="P" horiz-adv-x="874" 
d="M129 10h-29v680h396q125 0 196 -24t100 -64.5t29 -91.5v-40q0 -51 -29 -91.5t-100 -64.5t-196 -24h-367v-280zM496 320q295 0 295 150v40q0 41 -26 76q-57 75 -269 75h-367v-341h367z" />
    <glyph glyph-name="Q" unicode="Q" horiz-adv-x="972" 
d="M871 -179h-72q-105 0 -185 9.5t-118 48.5q-25 27 -25 69v34q-130 0 -218 28t-132.5 95t-44.5 185v92q0 116 43.5 183.5t127.5 96t206 28.5q123 0 204 -11t142 -57q97 -73 97 -240v-92q0 -118 -44.5 -185t-132.5 -95t-219 -28v-34q0 -42 34 -63t100 -27.5t165 -6.5h72v-30
zM518 11q179 0 263.5 63t84.5 216v92q0 152 -84.5 215.5t-263.5 63.5h-65q-176 0 -262 -62.5t-86 -216.5v-92q0 -152 85 -215.5t263 -63.5h65z" />
    <glyph glyph-name="R" unicode="R" horiz-adv-x="890" 
d="M817 10h-32l-51 100q-20 43 -46.5 80.5t-71 61t-120.5 23.5h-367v-265h-29v680h396q125 0 196 -25t100 -67.5t29 -94.5v-41q0 -42 -18.5 -76.5t-62 -61t-119.5 -42.5q61 -36 91 -76.5t49 -82.5zM496 304q295 0 295 158v41q0 44 -26 79q-57 79 -269 79h-367v-357h367z" />
    <glyph glyph-name="S" unicode="S" horiz-adv-x="877" 
d="M467 2q-118 0 -188 8t-121 37q-80 46 -80 142v34h29v-34q0 -78 68.5 -118t234.5 -40q111 0 191.5 10t124 39.5t43.5 89.5v33q0 42 -17 67.5t-53 41.5q-46 20 -114.5 25t-174.5 5q-80 0 -140.5 7t-103.5 25q-88 38 -88 135v33q0 64 41 100.5t116 52t175 15.5q118 0 188 -8
t121 -37q80 -46 80 -142v-34h-30v34q0 78 -68 118t-234 40q-111 0 -191.5 -10t-124.5 -39.5t-44 -89.5v-33q0 -42 17 -67.5t54 -40.5q45 -20 114 -25t175 -5q80 0 140.5 -7t103.5 -25q88 -39 88 -136v-33q0 -64 -41 -100.5t-116 -52t-175 -15.5z" />
    <glyph glyph-name="T" unicode="T" horiz-adv-x="835" 
d="M432 10h-29v651h-377v29h783v-29h-377v-651z" />
    <glyph glyph-name="U" unicode="U" horiz-adv-x="934" 
d="M497 -4q-113 0 -188.5 11.5t-131.5 57.5q-89 73 -89 240v385h29v-385q0 -154 78.5 -216.5t241.5 -62.5q109 0 180 10.5t121 50.5q78 64 78 218v385h30v-385q0 -116 -39.5 -183.5t-117.5 -96.5t-192 -29z" />
    <glyph glyph-name="V" unicode="V" horiz-adv-x="883" 
d="M458 10h-34l-399 680h35l381 -651l382 651h34z" />
    <glyph glyph-name="W" unicode="W" horiz-adv-x="1298" 
d="M973 10h-41l-283 653l-283 -653h-41l-295 680h32l283 -653l284 653h40l283 -653l284 653h32z" />
    <glyph glyph-name="X" unicode="X" horiz-adv-x="815" 
d="M781 10h-42l-332 320l-332 -320h-42l353 340l-353 340h42l332 -320l332 320h42l-353 -340z" />
    <glyph glyph-name="Y" unicode="Y" horiz-adv-x="802" 
d="M416 10h-30v309l-367 371h41l341 -344l341 344h41l-367 -371v-309z" />
    <glyph glyph-name="Z" unicode="Z" horiz-adv-x="869" 
d="M826 10h-783v42l751 609h-751v29h783v-42l-752 -609h752v-29z" />
    <glyph glyph-name="bracketleft" unicode="[" horiz-adv-x="341" 
d="M278 -40h-178v828h178v-30h-149v-769h149v-29z" />
    <glyph glyph-name="backslash" unicode="\" horiz-adv-x="528" 
d="M475 14h-34l-393 679h34z" />
    <glyph glyph-name="bracketright" unicode="]" horiz-adv-x="341" 
d="M241 -40h-178v29h148v769h-148v30h178v-828z" />
    <glyph glyph-name="asciicircum" unicode="^" horiz-adv-x="376" 
d="M332 465h-34l-110 191l-111 -191h-34l122 210h45z" />
    <glyph glyph-name="underscore" unicode="_" horiz-adv-x="551" 
d="M525 14h-499v29h499v-29z" />
    <glyph glyph-name="grave" unicode="`" horiz-adv-x="161" 
d="M132 739h-30l-88 153h74z" />
    <glyph glyph-name="a" unicode="a" horiz-adv-x="889" 
d="M860 10h-34l-129 220h-505l-129 -220h-35l399 680h34zM679 260l-235 400l-235 -400h470z" />
    <glyph glyph-name="b" unicode="b" horiz-adv-x="918" 
d="M513 10h-414v680h389q97 0 171.5 -13.5t117.5 -47.5t43 -94v-31q0 -51 -29 -83.5t-98 -55.5l59 -22q43 -19 67.5 -52.5t24.5 -79.5v-34q0 -96 -88 -134q-43 -19 -103.5 -26t-139.5 -7zM488 379q101 0 168.5 9.5t100.5 36.5t33 79v31q0 68 -78 97t-224 29h-360v-282h360z
M513 40q157 0 232 29q36 16 53 41t17 67v34q0 77 -80 107.5t-222 30.5h-385v-309h385z" />
    <glyph glyph-name="c" unicode="c" horiz-adv-x="922" 
d="M499 -18q-117 0 -194.5 11t-135.5 57q-92 73 -92 240v92q0 115 41 182.5t121.5 96.5t197.5 29q125 0 200.5 -9t133.5 -42q44 -26 66.5 -63t22.5 -76h-30q0 45 -32 81.5t-105 58t-194 21.5q-113 0 -186.5 -10.5t-125.5 -51.5q-81 -64 -81 -217v-92q0 -154 82 -216.5
t249 -62.5q119 0 193 9t126 39q74 43 74 113h30q0 -89 -87.5 -139.5t-273.5 -50.5z" />
    <glyph glyph-name="d" unicode="d" horiz-adv-x="919" 
d="M484 10h-385v680h385q118 0 198 -29t121 -96.5t41 -182.5v-63q0 -116 -41 -183.5t-121 -96.5t-198 -29zM484 40q168 0 249.5 62.5t81.5 216.5v63q0 154 -81.5 216.5t-249.5 62.5h-356v-621h356z" />
    <glyph glyph-name="e" unicode="e" horiz-adv-x="889" 
d="M844 10h-745v680h745v-29h-716v-296h618v-29h-618v-296h716v-30z" />
    <glyph glyph-name="f" unicode="f" horiz-adv-x="875" 
d="M128 10h-29v680h745v-29h-716v-345h618v-30h-618v-276z" />
    <glyph glyph-name="g" unicode="g" horiz-adv-x="941" 
d="M499 -18q-117 0 -194.5 11t-135.5 57q-92 73 -92 240v92q0 115 41 182.5t121.5 96.5t197.5 29q125 0 200.5 -9t133.5 -42q44 -26 66.5 -63t22.5 -76h-30q0 45 -32.5 81.5t-105 58t-193.5 21.5q-113 0 -186.5 -10.5t-125.5 -51.5q-81 -64 -81 -217v-92q0 -154 81.5 -216.5
t249.5 -62.5q119 0 193 9t126 39q74 43 74 123v139h-352v30h382v-169q0 -200 -361 -200z" />
    <glyph glyph-name="h" unicode="h" horiz-adv-x="958" 
d="M858 10h-30v325h-699v-325h-29v680h29v-326h699v326h30v-680z" />
    <glyph glyph-name="i" unicode="i" horiz-adv-x="429" 
d="M376 10h-326v29h148v621h-148v30h326v-30h-148v-621h148v-29z" />
    <glyph glyph-name="j" unicode="j" horiz-adv-x="802" 
d="M399 -4q-106 0 -172.5 8t-115.5 37q-38 24 -56 59t-18 73h29q0 -46 27 -79.5t88.5 -50.5t164.5 -17q95 0 155.5 7.5t106.5 34.5q71 39 71 128v494h29v-494q0 -102 -81.5 -151t-227.5 -49z" />
    <glyph glyph-name="k" unicode="k" horiz-adv-x="860" 
d="M822 10h-37l-133 177q-35 48 -74 80.5t-100 49.5t-165 17h-184v-324h-29v680h29v-325h184q104 0 165 17.5t100 50t74 80.5l133 177h37l-147 -195q-33 -47 -76.5 -82.5t-124.5 -62.5q81 -27 124.5 -62.5t76.5 -82.5z" />
    <glyph glyph-name="l" unicode="l" horiz-adv-x="871" 
d="M844 10h-745v680h29v-650h716v-30z" />
    <glyph glyph-name="m" unicode="m" horiz-adv-x="1069" 
d="M969 10h-29v637l-388 -636h-35l-388 636v-637h-29v680h38q125 -209 187 -299q20 -29 42 -63q45 -71 167 -290l397 652h38v-680z" />
    <glyph glyph-name="n" unicode="n" horiz-adv-x="956" 
d="M857 10h-46l-683 656v-656h-29v680h46l682 -655v655h30v-680z" />
    <glyph glyph-name="o" unicode="o" horiz-adv-x="972" 
d="M518 -18q-122 0 -203.5 11t-142.5 57q-96 73 -96 240v92q0 116 43.5 183.5t127.5 96t206 28.5h65q123 0 207 -29t127.5 -96t43.5 -183v-92q0 -116 -43.5 -183.5t-127.5 -96t-207 -28.5zM518 11q179 0 263.5 63t84.5 216v92q0 152 -84.5 215.5t-263.5 63.5
q-119 0 -196.5 -10.5t-131.5 -51.5q-85 -64 -85 -217v-92q0 -152 85 -215.5t263 -63.5h65z" />
    <glyph glyph-name="p" unicode="p" horiz-adv-x="874" 
d="M129 10h-29v680h396q125 0 196 -24t100 -64.5t29 -91.5v-40q0 -51 -29 -91.5t-100 -64.5t-196 -24h-367v-280zM496 320q295 0 295 150v40q0 41 -26 76q-57 75 -269 75h-367v-341h367z" />
    <glyph glyph-name="q" unicode="q" horiz-adv-x="972" 
d="M871 -179h-72q-105 0 -185 9.5t-118 48.5q-25 27 -25 69v34q-130 0 -218 28t-132.5 95t-44.5 185v92q0 116 43.5 183.5t127.5 96t206 28.5q123 0 204 -11t142 -57q97 -73 97 -240v-92q0 -118 -44.5 -185t-132.5 -95t-219 -28v-34q0 -42 34 -63t100 -27.5t165 -6.5h72v-30
zM518 11q179 0 263.5 63t84.5 216v92q0 152 -84.5 215.5t-263.5 63.5h-65q-176 0 -262 -62.5t-86 -216.5v-92q0 -152 85 -215.5t263 -63.5h65z" />
    <glyph glyph-name="r" unicode="r" horiz-adv-x="890" 
d="M817 10h-32l-51 100q-20 43 -46.5 80.5t-71 61t-120.5 23.5h-367v-265h-29v680h396q125 0 196 -25t100 -67.5t29 -94.5v-41q0 -42 -18.5 -76.5t-62 -61t-119.5 -42.5q61 -36 91 -76.5t49 -82.5zM496 304q295 0 295 158v41q0 44 -26 79q-57 79 -269 79h-367v-357h367z" />
    <glyph glyph-name="s" unicode="s" horiz-adv-x="877" 
d="M467 2q-118 0 -188 8t-121 37q-80 46 -80 142v34h29v-34q0 -78 68.5 -118t234.5 -40q111 0 191.5 10t124 39.5t43.5 89.5v33q0 42 -17 67.5t-53 41.5q-46 20 -114.5 25t-174.5 5q-80 0 -140.5 7t-103.5 25q-88 38 -88 135v33q0 64 41 100.5t116 52t175 15.5q118 0 188 -8
t121 -37q80 -46 80 -142v-34h-30v34q0 78 -68 118t-234 40q-111 0 -191.5 -10t-124.5 -39.5t-44 -89.5v-33q0 -42 17 -67.5t54 -40.5q45 -20 114 -25t175 -5q80 0 140.5 -7t103.5 -25q88 -39 88 -136v-33q0 -64 -41 -100.5t-116 -52t-175 -15.5z" />
    <glyph glyph-name="t" unicode="t" horiz-adv-x="835" 
d="M432 10h-29v651h-377v29h783v-29h-377v-651z" />
    <glyph glyph-name="u" unicode="u" horiz-adv-x="934" 
d="M497 -4q-113 0 -188.5 11.5t-131.5 57.5q-89 73 -89 240v385h29v-385q0 -154 78.5 -216.5t241.5 -62.5q109 0 180 10.5t121 50.5q78 64 78 218v385h30v-385q0 -116 -39.5 -183.5t-117.5 -96.5t-192 -29z" />
    <glyph glyph-name="v" unicode="v" horiz-adv-x="883" 
d="M458 10h-34l-399 680h35l381 -651l382 651h34z" />
    <glyph glyph-name="w" unicode="w" horiz-adv-x="1298" 
d="M973 10h-41l-283 653l-283 -653h-41l-295 680h32l283 -653l284 653h40l283 -653l284 653h32z" />
    <glyph glyph-name="x" unicode="x" horiz-adv-x="815" 
d="M781 10h-42l-332 320l-332 -320h-42l353 340l-353 340h42l332 -320l332 320h42l-353 -340z" />
    <glyph glyph-name="y" unicode="y" horiz-adv-x="802" 
d="M416 10h-30v309l-367 371h41l341 -344l341 344h41l-367 -371v-309z" />
    <glyph glyph-name="z" unicode="z" horiz-adv-x="869" 
d="M826 10h-783v42l751 609h-751v29h783v-42l-752 -609h752v-29z" />
    <glyph glyph-name="braceleft" unicode="{" horiz-adv-x="438" 
d="M387 10q-50 0 -88.5 6t-66.5 25q-49 34 -49 124v119q0 75 -30.5 100t-91.5 25v30q61 0 91.5 25t30.5 100v119q0 43 11 74q22 61 104 74q39 7 89 7v-30q-97 0 -138 -25q-37 -19 -37 -100v-119q0 -52 -14 -84.5t-50 -55.5q36 -23 50 -55.5t14 -84.5v-119q0 -81 37 -100
q41 -26 138 -26v-29z" />
    <glyph glyph-name="bar" unicode="|" horiz-adv-x="230" 
d="M129 -81h-29v877h29v-877z" />
    <glyph glyph-name="braceright" unicode="}" horiz-adv-x="438" 
d="M51 10v29q97 0 138 26q37 19 37 100v119q0 50 14 83t50 57q-36 23 -50 56.5t-14 83.5v119q0 81 -37 100q-41 25 -138 25v30q50 0 88.5 -6.5t65.5 -24.5q50 -34 50 -124v-119q0 -75 30.5 -100t91.5 -25v-30q-61 0 -91.5 -25t-30.5 -100v-119q0 -43 -11 -74
q-23 -61 -105 -75q-38 -6 -88 -6z" />
    <glyph glyph-name="asciitilde" unicode="~" horiz-adv-x="697" 
d="M477 284q-42 0 -73.5 19.5t-60 43.5t-58 42t-65.5 18q-79 0 -155 -113l-24 16q85 127 175 127q38 0 68 -14.5t56 -36.5l25 -20q28 -24 52 -38t60 -14q37 0 74.5 25.5t79.5 87.5l24 -16q-79 -127 -178 -127z" />
    <glyph glyph-name="exclamdown" unicode="&#xa1;" horiz-adv-x="253" 
d="M126 626q-34 0 -39 39q0 35 39 40q35 0 40 -40q0 -34 -40 -39zM158 25h-63l25 532h13z" />
    <glyph glyph-name="cent" unicode="&#xa2;" horiz-adv-x="746" 
d="M390 10h-29v78h-5q-136 0 -205 51t-69 178v66q0 127 68 177.5t201 50.5h10v79h29v-79q142 0 210 -36.5t68 -102.5h-30q0 48 -57.5 78.5t-190.5 31.5v-464q133 1 190.5 31.5t57.5 78.5h30q0 -66 -68 -102.5t-210 -37.5v-78zM361 118v464h-6q-122 0 -183 -43.5t-61 -155.5
v-66q0 -112 60 -155.5t179 -43.5h11z" />
    <glyph glyph-name="sterling" unicode="&#xa3;" horiz-adv-x="990" 
d="M897 14h-720v30h49v234h-167v30h167v171q0 78 38.5 125t110 68.5t171.5 21.5h55q96 0 168 -14t112.5 -45.5t40.5 -85.5h-30q0 62 -76 88.5t-215 26.5q-96 0 -160 -7t-112 -35q-74 -44 -74 -143v-171h475v-30h-475v-234h642v-30z" />
    <glyph glyph-name="yen" unicode="&#xa5;" horiz-adv-x="888" 
d="M459 10h-30v162h-321v30h321v118h-321v30h291l-337 340h41l341 -344l341 344h41l-337 -340h291v-30h-321v-118h321v-30h-321v-162z" />
    <glyph glyph-name="brokenbar" unicode="&#xa6;" horiz-adv-x="218" 
d="M123 404h-29v291h29v-291zM123 16h-29v291h29v-291z" />
    <glyph glyph-name="section" unicode="&#xa7;" horiz-adv-x="557" 
 />
    <glyph glyph-name="dieresis" unicode="&#xa8;" horiz-adv-x="378" 
d="M106 750q-50 0 -60 11t-10 56q0 29 13 39t44 10h13q39 0 48 -13.5t9 -53.5q0 -28 -13 -38.5t-44 -10.5zM284 750q-49 0 -59 11t-10 56q0 29 13 39t44 10h12q40 0 49 -13.5t9 -53.5q0 -28 -13 -38.5t-45 -10.5z" />
    <glyph glyph-name="copyright" unicode="&#xa9;" horiz-adv-x="1043" 
d="M556 -7q-130 0 -216 11t-151 56q-102 73 -102 241v91q0 114 45.5 182t134.5 97t220 29q130 0 216 -11t150 -56q103 -73 103 -241v-91q0 -115 -45 -182.5t-134 -96.5t-221 -29zM556 22q190 0 280.5 63t90.5 216v91q0 153 -90.5 216t-280.5 63q-127 0 -209.5 -10.5
t-139.5 -51.5q-45 -32 -68 -84.5t-23 -132.5v-91q0 -153 90.5 -216t280.5 -63h69zM542 110h-41q-122 0 -183.5 46.5t-61.5 160.5v59q0 114 61.5 160.5t183.5 46.5h41q129 0 187 -34.5t58 -91.5h-30q0 41 -49 69t-166 28q-77 0 -124.5 -7t-80.5 -32q-51 -41 -51 -139v-59
q0 -100 53.5 -139t161.5 -39q134 0 195 22t61 75h30q0 -57 -58.5 -91.5t-186.5 -34.5z" />
    <glyph glyph-name="registered" unicode="&#xae;" horiz-adv-x="601" 
d="M318 320h-36q-108 0 -161 36.5t-53 126.5v48q0 90 53 126.5t161 36.5h36q108 0 161 -37t53 -126v-48q0 -90 -53 -126.5t-161 -36.5zM318 337q99 0 148 32.5t49 113.5v48q0 80 -49 113t-148 33h-36q-99 0 -148 -32.5t-49 -113.5v-48q0 -64 26 -95t78 -41t129 -10zM402 410
h-16q-3 9 -6 19t-8 21q-11 25 -34 39q-13 -1 -110 -1v-78h-17v222h102q55 0 70 -22t15 -57q0 -16 -7.5 -31t-29.5 -28q13 -16 19 -28q3 -4 22 -56zM313 505q68 0 68 48v14q0 21 -14.5 34.5t-53.5 13.5h-85v-110h85z" />
    <glyph glyph-name="plusminus" unicode="&#xb1;" horiz-adv-x="644" 
d="M336 197h-29v167h-247v29h247v167h29v-167h247v-29h-247v-167zM583 108h-523v29h523v-29z" />
    <glyph glyph-name="acute" unicode="&#xb4;" horiz-adv-x="165" 
d="M70 735h-31l44 153h74z" />
    <glyph glyph-name="cedilla" unicode="&#xb8;" horiz-adv-x="179" 
d="M106 -190h-91v30h57q36 0 52.5 7.5t16.5 33.5q-4 25 -16 31t-25 6h-77l51 72h37l-32 -48q53 0 73.5 -13t20.5 -53q0 -37 -16.5 -51t-50.5 -15z" />
    <glyph glyph-name="questiondown" unicode="&#xbf;" horiz-adv-x="810" 
d="M489 626q-35 0 -40 39q0 35 40 40q34 0 39 -40q0 -34 -39 -39zM434 10h-53q-145 0 -227.5 37.5t-82.5 130.5v33q0 122 117 153q56 14 130 14q83 0 119.5 29t36.5 110v40h29v-40q0 -138 -107 -161q-34 -7 -78 -7q-67 0 -116 -11.5t-75.5 -41.5t-26.5 -85v-33
q0 -78 74.5 -108.5t206.5 -30.5q114 0 188 12.5t110 46.5t36 99v34h29v-34q0 -93 -71 -140t-239 -47z" />
    <glyph glyph-name="Agrave" unicode="&#xc0;" 
d="M885 10h-34l-129 220h-505l-129 -220h-35l399 680h34zM704 260l-235 401l-235 -401h470zM479 759h-30l-88 153h74z" />
    <glyph glyph-name="Aacute" unicode="&#xc1;" 
d="M499 759h-30l43 153h74zM885 10h-34l-129 220h-505l-129 -220h-35l399 680h34zM704 260l-235 401l-235 -401h470z" />
    <glyph glyph-name="Acircumflex" unicode="&#xc2;" 
d="M608 759h-65l-74 138l-73 -138h-66l119 153h40zM885 10h-34l-129 220h-505l-129 -220h-35l399 680h34zM704 260l-235 401l-235 -401h470z" />
    <glyph glyph-name="Atilde" unicode="&#xc3;" 
d="M704 260l-235 401l-235 -401h470zM535 760q-23 0 -41 13.5t-34 29.5q-14 14 -27.5 25t-28.5 11q-15 -1 -33 -16t-39 -61v1l-23 10q42 90 94 90q22 0 40 -13.5t34 -29.5q14 -14 28 -25t30 -11q15 1 33 15t39 61l22 -11q-40 -89 -94 -89zM885 10h-34l-129 220h-505
l-129 -220h-35l399 680h34z" />
    <glyph glyph-name="Adieresis" unicode="&#xc4;" 
d="M565 759h-13q-39 0 -48 13.5t-9 53.5q0 33 15.5 41t54.5 8t48 -13.5t9 -53.5q0 -29 -13 -39t-44 -10zM386 759h-12q-40 0 -49 13.5t-9 53.5q0 33 15.5 41t54.5 8q40 0 48.5 -13.5t8.5 -53.5q0 -29 -13 -39t-44 -10zM885 10h-34l-129 220h-505l-129 -220h-35l399 680h34z
M704 260l-235 401l-235 -401h470z" />
    <glyph glyph-name="Aring" unicode="&#xc5;" 
d="M477 732q41 0 56 13.5t15 59.5t-16 59.5t-70 13.5q-42 0 -57 -13.5t-15 -59.5t17 -59.5t70 -13.5zM704 260l-235 401l-234 -401h469zM885 10h-34l-129 220h-505l-130 -220h-34l411 699q-96 7 -96 85v22q0 42 25 65q23 19 77 19q52 0 75 -19q25 -23 25 -65v-22
q0 -78 -95 -85z" />
    <glyph glyph-name="AE" unicode="&#xc6;" horiz-adv-x="1368" 
d="M1302 10h-746v220h-376l-193 -220h-40l595 680h760v-30h-717v-296h618v-29h-618v-296h717v-29zM556 260v400l-351 -400h351z" />
    <glyph glyph-name="Ccedilla" unicode="&#xc7;" horiz-adv-x="950" 
d="M508 -190h-100v29h57q37 1 53 7.5t16 32.5q0 17 -7 25.5t-15.5 10.5t-18.5 2h-77l56 79q-131 0 -216 29t-126.5 97t-41.5 183v91q0 114 40 181.5t120.5 97t199.5 29.5q125 0 200.5 -9t133.5 -42q45 -26 67 -63t22 -76h-30q0 72 -77.5 116.5t-253.5 44.5
q-113 0 -187 -10.5t-124 -51.5q-82 -66 -82 -217v-91q0 -153 81 -216t250 -63q120 0 194 8.5t125 38.5q74 44 74 114h30q0 -187 -362 -191l-37 -55q54 0 74 -12.5t20 -52.5q0 -66 -58 -66z" />
    <glyph glyph-name="Egrave" unicode="&#xc8;" horiz-adv-x="913" 
d="M845 10h-745v680h745v-30h-716v-296h618v-29h-618v-296h716v-29zM506 759h-31l-87 153h74z" />
    <glyph glyph-name="Eacute" unicode="&#xc9;" horiz-adv-x="913" 
d="M845 10h-745v680h745v-30h-716v-296h618v-29h-618v-296h716v-29zM463 759h-31l44 153h74z" />
    <glyph glyph-name="Ecircumflex" unicode="&#xca;" horiz-adv-x="913" 
d="M845 10h-745v680h745v-30h-716v-296h618v-29h-618v-296h716v-29zM612 759h-66l-73 138l-74 -138h-65l119 153h40z" />
    <glyph glyph-name="Edieresis" unicode="&#xcb;" horiz-adv-x="913" 
d="M845 10h-745v680h745v-30h-716v-296h618v-29h-618v-296h716v-29zM568 759h-12q-40 0 -49 13.5t-9 53.5q0 32 15.5 40.5t54.5 8.5q40 0 49 -13.5t9 -53.5q0 -29 -13 -39t-45 -10zM390 759h-13q-39 0 -48 13.5t-9 53.5q0 32 15.5 40.5t54.5 8.5t48 -13.5t9 -53.5
q0 -29 -13 -39t-44 -10z" />
    <glyph glyph-name="Igrave" unicode="&#xcc;" horiz-adv-x="452" 
d="M389 10h-326v29h148v621h-148v30h326v-30h-148v-621h148v-29zM235 759h-31l-87 153h74z" />
    <glyph glyph-name="Iacute" unicode="&#xcd;" horiz-adv-x="452" 
d="M389 10h-326v29h148v621h-148v30h326v-30h-148v-621h148v-29zM261 759h-30l44 153h74z" />
    <glyph glyph-name="Icircumflex" unicode="&#xce;" horiz-adv-x="452" 
d="M389 10h-326v29h148v621h-148v30h326v-30h-148v-621h148v-29zM365 759h-66l-73 138l-74 -138h-65l119 153h40z" />
    <glyph glyph-name="Idieresis" unicode="&#xcf;" horiz-adv-x="452" 
d="M389 10h-326v29h148v621h-148v30h326v-30h-148v-621h148v-29zM143 759h-13q-39 0 -48 13.5t-9 53.5q0 32 15.5 40.5t54.5 8.5t48 -13.5t9 -53.5q0 -29 -13 -39t-44 -10zM321 759h-12q-40 0 -48.5 13.5t-8.5 53.5q0 32 15 40.5t54 8.5q40 0 49 -13.5t9 -53.5
q0 -29 -13 -39t-45 -10z" />
    <glyph glyph-name="Eth" unicode="&#xd0;" horiz-adv-x="1042" 
d="M595 10h-385v310h-152v29h152v341h385q117 0 197.5 -29t121.5 -96.5t41 -183.5v-63q0 -115 -41 -182.5t-121.5 -96.5t-197.5 -29zM595 39q168 0 249.5 62.5t81.5 216.5v63q0 154 -81.5 216.5t-249.5 62.5h-356v-311h318v-29h-318v-281h356z" />
    <glyph glyph-name="Ntilde" unicode="&#xd1;" horiz-adv-x="958" 
d="M858 10h-46l-683 655v-655h-29v680h46l682 -656v656h30v-680zM545 759q-37 0 -66 34q-19 21 -33.5 33t-32.5 12q-38 -2 -72 -76l-21 11q22 46 42.5 67.5t50.5 21.5q32 0 66 -33q20 -22 34.5 -34t31.5 -12q15 1 32.5 16t39.5 61v-2l21 -10q-21 -44 -42.5 -66.5
t-50.5 -22.5z" />
    <glyph glyph-name="Ograve" unicode="&#xd2;" horiz-adv-x="994" 
d="M529 10q-122 0 -203.5 11t-142.5 57q-96 73 -96 240v92q0 116 43.5 183.5t127.5 96t206 28.5q123 0 204 -11t142 -57q97 -74 97 -240v-92q0 -116 -43.5 -183.5t-127.5 -96t-207 -28.5zM529 39q179 0 263.5 63t84.5 216v92q0 152 -84.5 215.5t-263.5 63.5
q-119 0 -196.5 -11t-131.5 -52q-85 -63 -85 -216v-92q0 -152 85 -215.5t263 -63.5h65zM525 773h-31l-87 153h74z" />
    <glyph glyph-name="Oacute" unicode="&#xd3;" horiz-adv-x="994" 
d="M529 10q-122 0 -203.5 11t-142.5 57q-96 73 -96 240v92q0 116 43.5 183.5t127.5 96t206 28.5q123 0 204 -11t142 -57q97 -74 97 -240v-92q0 -116 -43.5 -183.5t-127.5 -96t-207 -28.5zM529 39q179 0 263.5 63t84.5 216v92q0 152 -84.5 215.5t-263.5 63.5
q-119 0 -196.5 -11t-131.5 -52q-85 -63 -85 -216v-92q0 -152 85 -215.5t263 -63.5h65zM526 773h-30l44 153h74z" />
    <glyph glyph-name="Ocircumflex" unicode="&#xd4;" horiz-adv-x="994" 
d="M529 10q-122 0 -203.5 11t-142.5 57q-96 73 -96 240v92q0 116 43.5 183.5t127.5 96t206 28.5q123 0 204 -11t142 -57q97 -73 97 -240v-92q0 -116 -43.5 -183.5t-127.5 -96t-207 -28.5zM529 39q179 0 263.5 63t84.5 216v92q0 152 -84.5 215.5t-263.5 63.5
q-119 0 -196.5 -11t-131.5 -52q-85 -63 -85 -216v-92q0 -152 85 -215.5t263 -63.5h65zM636 773h-66l-73 138l-74 -138h-65l119 153h40z" />
    <glyph glyph-name="Otilde" unicode="&#xd5;" horiz-adv-x="994" 
d="M545 799q-37 0 -66 34q-19 21 -33.5 33t-32.5 12q-38 -2 -72 -76l-21 11q22 46 42.5 67.5t50.5 21.5q32 0 66 -33q20 -22 34.5 -34t31.5 -12q15 1 32.5 16t39.5 61v-2l21 -10q-21 -44 -42.5 -66.5t-50.5 -22.5zM529 10q-122 0 -203.5 11t-142.5 57q-96 73 -96 240v92
q0 116 43.5 183.5t127.5 96t206 28.5q123 0 204 -11t142 -57q97 -73 97 -240v-92q0 -116 -43.5 -183.5t-127.5 -96t-207 -28.5zM529 39q179 0 263.5 63t84.5 216v92q0 152 -84.5 215.5t-263.5 63.5q-119 0 -196.5 -11t-131.5 -52q-85 -63 -85 -216v-92q0 -152 85 -215.5
t263 -63.5h65z" />
    <glyph glyph-name="Odieresis" unicode="&#xd6;" horiz-adv-x="994" 
d="M529 10q-122 0 -203.5 11t-142.5 57q-96 73 -96 240v92q0 116 43.5 183.5t127.5 96t206 28.5q123 0 204 -11t142 -57q97 -73 97 -240v-92q0 -116 -43.5 -183.5t-127.5 -96t-207 -28.5zM529 39q179 0 263.5 63t84.5 216v92q0 152 -84.5 215.5t-263.5 63.5
q-119 0 -196.5 -11t-131.5 -52q-85 -63 -85 -216v-92q0 -152 85 -215.5t263 -63.5h65zM592 773h-12q-40 0 -48.5 13.5t-8.5 53.5q0 33 15 41t54 8q40 0 49 -13.5t9 -53.5q0 -29 -13 -39t-45 -10zM414 773h-13q-39 0 -48 13.5t-9 53.5q0 33 15.5 41t54.5 8t48 -13.5t9 -53.5
q0 -29 -13 -39t-44 -10z" />
    <glyph glyph-name="multiply" unicode="&#xd7;" horiz-adv-x="610" 
d="M530 116l-225 200l-225 -200l-20 21l223 199l-223 199l20 21l225 -200l225 200l19 -21l-222 -199l222 -199z" />
    <glyph glyph-name="Oslash" unicode="&#xd8;" horiz-adv-x="997" 
d="M531 10h-65q-81 0 -145.5 12.5t-117.5 43.5l-54 -55l-21 21l51 51q-90 81 -90 235v92q0 116 43.5 183.5t127.5 96t206 28.5h65q149 0 240 -43l42 42l21 -21l-36 -36q111 -76 111 -250v-92q0 -116 -43.5 -183.5t-127.5 -96t-207 -28.5zM200 104q111 111 165 167.5t80.5 86
t55 59t85 83t163.5 153.5q-92 36 -218 36q-119 0 -196.5 -11t-131.5 -52q-85 -63 -85 -216v-92q0 -149 82 -214zM531 39q179 0 263.5 63t84.5 216v92q0 83 -25 138.5t-77 90.5l-552 -552q64 -33 133 -40.5t173 -7.5z" />
    <glyph glyph-name="Ugrave" unicode="&#xd9;" horiz-adv-x="944" 
d="M502 10q-113 0 -188.5 11t-131.5 58q-89 72 -89 239v386h29v-386q0 -153 78.5 -216t241.5 -63q109 0 180 10.5t121 51.5q78 64 78 217v386h30v-386q0 -115 -39.5 -182.5t-117.5 -96.5t-192 -29zM495 773h-30l-87 153h74z" />
    <glyph glyph-name="Uacute" unicode="&#xda;" horiz-adv-x="944" 
d="M502 10q-113 0 -188.5 11t-131.5 58q-89 72 -89 239v386h29v-386q0 -153 78.5 -216t241.5 -63q109 0 180 10.5t121 51.5q78 64 78 217v386h30v-386q0 -115 -39.5 -182.5t-117.5 -96.5t-192 -29zM506 773h-30l43 153h74z" />
    <glyph glyph-name="Ucircumflex" unicode="&#xdb;" horiz-adv-x="944" 
d="M502 10q-113 0 -188.5 11t-131.5 58q-89 72 -89 239v386h29v-386q0 -153 78.5 -216t241.5 -63q109 0 180 10.5t121 51.5q78 64 78 217v386h30v-386q0 -115 -39.5 -182.5t-117.5 -96.5t-192 -29zM611 773h-66l-73 138l-74 -138h-65l119 153h40z" />
    <glyph glyph-name="Udieresis" unicode="&#xdc;" horiz-adv-x="944" 
d="M502 10q-113 0 -188.5 11t-131.5 58q-89 72 -89 239v386h29v-386q0 -153 78.5 -216t241.5 -63q109 0 180 10.5t121 51.5q78 64 78 217v386h30v-386q0 -115 -39.5 -182.5t-117.5 -96.5t-192 -29zM567 773h-12q-40 0 -48.5 13.5t-8.5 53.5q0 33 15 41t54 8q40 0 49 -13.5
t9 -53.5q0 -29 -13 -39t-45 -10zM389 773h-12q-40 0 -49 13.5t-9 53.5q0 33 15.5 41t54.5 8t48 -13.5t9 -53.5q0 -29 -13 -39t-44 -10z" />
    <glyph glyph-name="Yacute" unicode="&#xdd;" horiz-adv-x="853" 
d="M432 743h-30l43 153h74zM441 10h-30v309l-367 371h41l341 -344l341 344h41l-367 -370v-310z" />
    <glyph glyph-name="Thorn" unicode="&#xde;" horiz-adv-x="894" 
d="M129 10h-29v680h29v-140h367q125 0 196 -24t100 -64.5t29 -91.5v-40q0 -51 -29 -91.5t-100 -64.5t-196 -24h-367v-140zM496 179q295 0 295 151v40q0 41 -26 75q-57 75 -269 75h-367v-341h367z" />
    <glyph glyph-name="germandbls" unicode="&#xdf;" horiz-adv-x="928" 
d="M511 14h-231v30h231q157 0 232 29q36 16 53 41t17 67v34q0 77 -80 107.5t-222 30.5h-231v29h206q101 0 168.5 10t100.5 37t33 79v31q0 68 -78 96.5t-224 28.5q-113 0 -193.5 -9t-123.5 -36t-43 -80v-525h-29v525q0 60 42.5 93.5t117.5 47.5t172 14h57q97 0 172 -14
t117.5 -47.5t42.5 -93.5v-31q0 -51 -29.5 -83.5t-99.5 -56.5q78 -24 115.5 -60.5t37.5 -92.5v-34q0 -97 -88 -135q-43 -18 -103.5 -25t-139.5 -7z" />
    <glyph glyph-name="agrave" unicode="&#xe0;" 
d="M885 10h-34l-129 220h-505l-129 -220h-35l399 680h34zM704 260l-235 401l-235 -401h470zM479 759h-30l-88 153h74z" />
    <glyph glyph-name="aacute" unicode="&#xe1;" 
d="M499 759h-30l43 153h74zM885 10h-34l-129 220h-505l-129 -220h-35l399 680h34zM704 260l-235 401l-235 -401h470z" />
    <glyph glyph-name="acircumflex" unicode="&#xe2;" 
d="M608 759h-65l-74 138l-73 -138h-66l119 153h40zM885 10h-34l-129 220h-505l-129 -220h-35l399 680h34zM704 260l-235 401l-235 -401h470z" />
    <glyph glyph-name="atilde" unicode="&#xe3;" 
d="M704 260l-235 401l-235 -401h470zM535 760q-18 0 -34.5 9t-30.5 24q-5 5 -9 10q-16 16 -28.5 26t-28.5 10q-15 -1 -33 -16t-39 -61v1l-23 10q42 90 94 90q22 0 40 -13.5t34 -29.5q14 -14 28 -25t30 -11q15 1 33 15t39 61l22 -11q-40 -89 -94 -89zM885 10h-34l-129 220
h-505l-129 -220h-35l399 680h34z" />
    <glyph glyph-name="adieresis" unicode="&#xe4;" 
d="M565 759h-13q-39 0 -48 13.5t-9 53.5q0 33 15.5 41t54.5 8t48 -13.5t9 -53.5q0 -29 -13 -39t-44 -10zM386 759h-12q-40 0 -49 13.5t-9 53.5q0 33 15.5 41t54.5 8q40 0 48.5 -13.5t8.5 -53.5q0 -29 -13 -39t-44 -10zM885 10h-34l-129 220h-505l-129 -220h-35l399 680h34z
M704 260l-235 401l-235 -401h470z" />
    <glyph glyph-name="aring" unicode="&#xe5;" 
d="M477 732q41 0 56 13.5t15 59.5t-16 59.5t-70 13.5q-42 0 -57 -13.5t-15 -59.5t17 -59.5t70 -13.5zM704 260l-235 401l-234 -401h469zM885 10h-34l-129 220h-505l-130 -220h-34l411 699q-96 7 -96 85v22q0 42 25 65q23 19 77 19q52 0 75 -19q25 -23 25 -65v-22
q0 -78 -95 -85z" />
    <glyph glyph-name="ae" unicode="&#xe6;" horiz-adv-x="1373" 
d="M1307 10h-746v220h-376l-193 -220h-40l595 680h760v-30h-717v-296h618v-29h-618v-296h717v-29zM561 260v400l-351 -400h351z" />
    <glyph glyph-name="ccedilla" unicode="&#xe7;" horiz-adv-x="950" 
d="M508 -190h-100v29h57q37 1 53 7.5t16 32.5q0 17 -7 25.5t-15.5 10.5t-18.5 2h-77l56 79q-131 0 -216 29t-126.5 97t-41.5 183v91q0 114 40 181.5t120.5 97t199.5 29.5q125 0 200.5 -9t133.5 -42q45 -26 67 -63t22 -76h-30q0 72 -77.5 116.5t-253.5 44.5
q-113 0 -187 -10.5t-124 -51.5q-82 -66 -82 -217v-91q0 -153 81 -216t250 -63q120 0 194 8.5t125 38.5q74 44 74 114h30q0 -187 -362 -191l-37 -55q54 0 74 -12.5t20 -52.5q0 -66 -58 -66z" />
    <glyph glyph-name="egrave" unicode="&#xe8;" horiz-adv-x="913" 
d="M845 10h-745v680h745v-30h-716v-296h618v-29h-618v-296h716v-29zM506 759h-31l-87 153h74z" />
    <glyph glyph-name="eacute" unicode="&#xe9;" horiz-adv-x="913" 
d="M845 10h-745v680h745v-30h-716v-296h618v-29h-618v-296h716v-29zM463 759h-31l44 153h74z" />
    <glyph glyph-name="ecircumflex" unicode="&#xea;" horiz-adv-x="913" 
d="M845 10h-745v680h745v-30h-716v-296h618v-29h-618v-296h716v-29zM612 759h-66l-73 138l-74 -138h-65l119 153h40z" />
    <glyph glyph-name="edieresis" unicode="&#xeb;" horiz-adv-x="913" 
d="M845 10h-745v680h745v-30h-716v-296h618v-29h-618v-296h716v-29zM568 759h-12q-40 0 -49 13.5t-9 53.5q0 32 15.5 40.5t54.5 8.5q40 0 49 -13.5t9 -53.5q0 -29 -13 -39t-45 -10zM390 759h-13q-39 0 -48 13.5t-9 53.5q0 32 15.5 40.5t54.5 8.5t48 -13.5t9 -53.5
q0 -29 -13 -39t-44 -10z" />
    <glyph glyph-name="igrave" unicode="&#xec;" horiz-adv-x="452" 
d="M389 10h-326v29h148v621h-148v30h326v-30h-148v-621h148v-29zM235 759h-31l-87 153h74z" />
    <glyph glyph-name="iacute" unicode="&#xed;" horiz-adv-x="452" 
d="M389 10h-326v29h148v621h-148v30h326v-30h-148v-621h148v-29zM261 759h-30l44 153h74z" />
    <glyph glyph-name="icircumflex" unicode="&#xee;" horiz-adv-x="452" 
d="M389 10h-326v29h148v621h-148v30h326v-30h-148v-621h148v-29zM365 759h-66l-73 138l-74 -138h-65l119 153h40z" />
    <glyph glyph-name="idieresis" unicode="&#xef;" horiz-adv-x="452" 
d="M389 10h-326v29h148v621h-148v30h326v-30h-148v-621h148v-29zM143 759h-13q-39 0 -48 13.5t-9 53.5q0 32 15.5 40.5t54.5 8.5t48 -13.5t9 -53.5q0 -29 -13 -39t-44 -10zM321 759h-12q-40 0 -48.5 13.5t-8.5 53.5q0 32 15 40.5t54 8.5q40 0 49 -13.5t9 -53.5
q0 -29 -13 -39t-45 -10z" />
    <glyph glyph-name="eth" unicode="&#xf0;" horiz-adv-x="1042" 
d="M595 10h-385v310h-152v29h152v341h385q117 0 197.5 -29t121.5 -96.5t41 -183.5v-63q0 -115 -41 -182.5t-121.5 -96.5t-197.5 -29zM595 39q168 0 249.5 62.5t81.5 216.5v63q0 154 -81.5 216.5t-249.5 62.5h-356v-311h318v-29h-318v-281h356z" />
    <glyph glyph-name="ntilde" unicode="&#xf1;" horiz-adv-x="958" 
d="M858 10h-46l-683 655v-655h-29v680h46l682 -656v656h30v-680zM545 759q-37 0 -66 34q-19 21 -33.5 33t-32.5 12q-38 -2 -72 -76l-21 11q22 46 42.5 67.5t50.5 21.5q32 0 66 -33q20 -22 34.5 -34t31.5 -12q15 1 32.5 16t39.5 61v-2l21 -10q-21 -44 -42.5 -66.5
t-50.5 -22.5z" />
    <glyph glyph-name="ograve" unicode="&#xf2;" horiz-adv-x="994" 
d="M529 10q-122 0 -203.5 11t-142.5 57q-96 73 -96 240v92q0 116 43.5 183.5t127.5 96t206 28.5q123 0 204 -11t142 -57q97 -74 97 -240v-92q0 -116 -43.5 -183.5t-127.5 -96t-207 -28.5zM529 39q179 0 263.5 63t84.5 216v92q0 152 -84.5 215.5t-263.5 63.5
q-119 0 -196.5 -11t-131.5 -52q-85 -63 -85 -216v-92q0 -152 85 -215.5t263 -63.5h65zM525 773h-31l-87 153h74z" />
    <glyph glyph-name="oacute" unicode="&#xf3;" horiz-adv-x="994" 
d="M529 10q-122 0 -203.5 11t-142.5 57q-96 73 -96 240v92q0 116 43.5 183.5t127.5 96t206 28.5q123 0 204 -11t142 -57q97 -74 97 -240v-92q0 -116 -43.5 -183.5t-127.5 -96t-207 -28.5zM529 39q179 0 263.5 63t84.5 216v92q0 152 -84.5 215.5t-263.5 63.5
q-119 0 -196.5 -11t-131.5 -52q-85 -63 -85 -216v-92q0 -152 85 -215.5t263 -63.5h65zM526 773h-30l44 153h74z" />
    <glyph glyph-name="ocircumflex" unicode="&#xf4;" horiz-adv-x="994" 
d="M529 10q-122 0 -203.5 11t-142.5 57q-96 73 -96 240v92q0 116 43.5 183.5t127.5 96t206 28.5q123 0 204 -11t142 -57q97 -73 97 -240v-92q0 -116 -43.5 -183.5t-127.5 -96t-207 -28.5zM529 39q179 0 263.5 63t84.5 216v92q0 152 -84.5 215.5t-263.5 63.5
q-119 0 -196.5 -11t-131.5 -52q-85 -63 -85 -216v-92q0 -152 85 -215.5t263 -63.5h65zM636 773h-66l-73 138l-74 -138h-65l119 153h40z" />
    <glyph glyph-name="otilde" unicode="&#xf5;" horiz-adv-x="994" 
d="M545 799q-37 0 -66 34q-19 21 -33.5 33t-32.5 12q-38 -2 -72 -76l-21 11q22 46 42.5 67.5t50.5 21.5q32 0 66 -33q20 -22 34.5 -34t31.5 -12q15 1 32.5 16t39.5 61v-2l21 -10q-21 -44 -42.5 -66.5t-50.5 -22.5zM529 10q-122 0 -203.5 11t-142.5 57q-96 73 -96 240v92
q0 116 43.5 183.5t127.5 96t206 28.5q123 0 204 -11t142 -57q97 -73 97 -240v-92q0 -116 -43.5 -183.5t-127.5 -96t-207 -28.5zM529 39q179 0 263.5 63t84.5 216v92q0 152 -84.5 215.5t-263.5 63.5q-119 0 -196.5 -11t-131.5 -52q-85 -63 -85 -216v-92q0 -152 85 -215.5
t263 -63.5h65z" />
    <glyph glyph-name="odieresis" unicode="&#xf6;" horiz-adv-x="994" 
d="M529 10q-122 0 -203.5 11t-142.5 57q-96 73 -96 240v92q0 116 43.5 183.5t127.5 96t206 28.5q123 0 204 -11t142 -57q97 -73 97 -240v-92q0 -116 -43.5 -183.5t-127.5 -96t-207 -28.5zM529 39q179 0 263.5 63t84.5 216v92q0 152 -84.5 215.5t-263.5 63.5
q-119 0 -196.5 -11t-131.5 -52q-85 -63 -85 -216v-92q0 -152 85 -215.5t263 -63.5h65zM592 773h-12q-40 0 -48.5 13.5t-8.5 53.5q0 33 15 41t54 8q40 0 49 -13.5t9 -53.5q0 -29 -13 -39t-45 -10zM414 773h-13q-39 0 -48 13.5t-9 53.5q0 33 15.5 41t54.5 8t48 -13.5t9 -53.5
q0 -29 -13 -39t-44 -10z" />
    <glyph glyph-name="divide" unicode="&#xf7;" horiz-adv-x="590" 
d="M295 371q-35 0 -40 39q0 35 40 40q34 0 39 -40q0 -34 -39 -39zM556 210h-523v30h523v-30zM295 0q-35 0 -40 40q0 35 40 39q34 0 39 -39q0 -35 -39 -40z" />
    <glyph glyph-name="oslash" unicode="&#xf8;" horiz-adv-x="997" 
d="M531 10h-65q-81 0 -145.5 12.5t-117.5 43.5l-54 -55l-21 21l51 51q-90 81 -90 235v92q0 116 43.5 183.5t127.5 96t206 28.5h65q149 0 240 -43l42 42l21 -21l-36 -36q111 -76 111 -250v-92q0 -116 -43.5 -183.5t-127.5 -96t-207 -28.5zM200 104q111 111 165 167.5t80.5 86
t55 59t85 83t163.5 153.5q-92 36 -218 36q-119 0 -196.5 -11t-131.5 -52q-85 -63 -85 -216v-92q0 -149 82 -214zM531 39q179 0 263.5 63t84.5 216v92q0 83 -25 138.5t-77 90.5l-552 -552q64 -33 133 -40.5t173 -7.5z" />
    <glyph glyph-name="ugrave" unicode="&#xf9;" horiz-adv-x="944" 
d="M502 10q-113 0 -188.5 11t-131.5 58q-89 72 -89 239v386h29v-386q0 -153 78.5 -216t241.5 -63q109 0 180 10.5t121 51.5q78 64 78 217v386h30v-386q0 -115 -39.5 -182.5t-117.5 -96.5t-192 -29zM495 773h-30l-87 153h74z" />
    <glyph glyph-name="uacute" unicode="&#xfa;" horiz-adv-x="944" 
d="M502 10q-113 0 -188.5 11t-131.5 58q-89 72 -89 239v386h29v-386q0 -153 78.5 -216t241.5 -63q109 0 180 10.5t121 51.5q78 64 78 217v386h30v-386q0 -115 -39.5 -182.5t-117.5 -96.5t-192 -29zM506 773h-30l43 153h74z" />
    <glyph glyph-name="ucircumflex" unicode="&#xfb;" horiz-adv-x="944" 
d="M502 10q-113 0 -188.5 11t-131.5 58q-89 72 -89 239v386h29v-386q0 -153 78.5 -216t241.5 -63q109 0 180 10.5t121 51.5q78 64 78 217v386h30v-386q0 -115 -39.5 -182.5t-117.5 -96.5t-192 -29zM611 773h-66l-73 138l-74 -138h-65l119 153h40z" />
    <glyph glyph-name="udieresis" unicode="&#xfc;" horiz-adv-x="944" 
d="M502 10q-113 0 -188.5 11t-131.5 58q-89 72 -89 239v386h29v-386q0 -153 78.5 -216t241.5 -63q109 0 180 10.5t121 51.5q78 64 78 217v386h30v-386q0 -115 -39.5 -182.5t-117.5 -96.5t-192 -29zM567 773h-12q-40 0 -48.5 13.5t-8.5 53.5q0 33 15 41t54 8q40 0 49 -13.5
t9 -53.5q0 -29 -13 -39t-45 -10zM389 773h-12q-40 0 -49 13.5t-9 53.5q0 33 15.5 41t54.5 8t48 -13.5t9 -53.5q0 -29 -13 -39t-44 -10z" />
    <glyph glyph-name="yacute" unicode="&#xfd;" horiz-adv-x="853" 
d="M432 743h-30l43 153h74zM441 10h-30v309l-367 371h41l341 -344l341 344h41l-367 -370v-310z" />
    <glyph glyph-name="thorn" unicode="&#xfe;" horiz-adv-x="894" 
d="M129 10h-29v680h29v-140h367q125 0 196 -24t100 -64.5t29 -91.5v-40q0 -51 -29 -91.5t-100 -64.5t-196 -24h-367v-140zM496 179q295 0 295 151v40q0 41 -26 75q-57 75 -269 75h-367v-341h367z" />
    <glyph glyph-name="ydieresis" unicode="&#xff;" horiz-adv-x="852" 
d="M441 10h-30v309l-367 371h41l341 -344l341 344h41l-367 -370v-310zM521 759h-12q-40 0 -48.5 13.5t-8.5 53.5q0 33 15.5 41t53.5 8q40 0 49 -13.5t9 -53.5q0 -29 -13 -39t-45 -10zM343 759h-12q-40 0 -49 13.5t-9 53.5q0 33 15.5 41t54.5 8q40 0 48.5 -13.5t8.5 -53.5
q0 -29 -13 -39t-44 -10z" />
    <glyph glyph-name="Lslash" unicode="&#x141;" horiz-adv-x="1090" 
d="M1039 10h-746v304l-215 -215l-21 21l236 236v334h29v-305l219 220l17 -25l-236 -236v-305h717v-29z" />
    <glyph glyph-name="lslash" unicode="&#x142;" horiz-adv-x="621" 
d="M474 10h-326v29h148v275l-215 -215l-21 21l236 236v304h-148v30h326v-30h-149v-275l216 215l20 -20l-236 -236v-305h149v-29z" />
    <glyph glyph-name="OE" unicode="&#x152;" horiz-adv-x="1689" 
d="M529 10q-122 0 -203.5 11t-142.5 57q-96 73 -96 240v92q0 116 43.5 183.5t127.5 96t206 28.5q100 0 176 -9t134.5 -40.5t102.5 -98.5v134h746v-30h-716v-295h617v-30h-617v-295h716v-30h-746v133q-57 -84 -141.5 -115.5t-206.5 -31.5zM529 39q179 0 263.5 63t84.5 216v92
q0 152 -84.5 215.5t-263.5 63.5h-65q-178 0 -263 -63t-85 -216v-92q0 -152 85 -215.5t263 -63.5h65z" />
    <glyph glyph-name="oe" unicode="&#x153;" horiz-adv-x="1689" 
d="M529 10q-122 0 -203.5 11t-142.5 57q-96 73 -96 240v92q0 116 43.5 183.5t127.5 96t206 28.5q100 0 176 -9t134.5 -40.5t102.5 -98.5v134h746v-30h-716v-295h617v-30h-617v-295h716v-30h-746v133q-57 -84 -141.5 -115.5t-206.5 -31.5zM529 39q179 0 263.5 63t84.5 216v92
q0 152 -84.5 215.5t-263.5 63.5h-65q-178 0 -263 -63t-85 -216v-92q0 -152 85 -215.5t263 -63.5h65z" />
    <glyph glyph-name="Scaron" unicode="&#x160;" horiz-adv-x="898" 
d="M477 10q-118 0 -188 8t-121 37q-80 46 -80 142v34h29v-34q0 -78 68.5 -118t234.5 -40q111 0 191.5 10t124 39.5t43.5 89.5v33q0 42 -17 67.5t-53 41.5q-46 19 -114.5 24.5t-174.5 5.5q-80 0 -140.5 6.5t-103.5 25.5q-88 38 -88 135v33q0 64 41 100.5t116 52t175 15.5
q118 0 188 -8t121 -37q80 -46 80 -142v-34h-30v34q0 78 -68 118t-234 40q-111 0 -191.5 -10t-124.5 -39.5t-44 -89.5v-33q0 -42 17 -67.5t54 -40.5q45 -20 114 -25t175 -5q80 0 140.5 -7t103.5 -25q88 -39 88 -136v-33q0 -64 -41 -100.5t-116 -52t-175 -15.5zM468 773h-39
l-120 153h66l73 -138l74 138h65z" />
    <glyph glyph-name="Ycircumflex" unicode="&#x176;" horiz-adv-x="852" 
d="M441 10h-30v309l-367 371h41l341 -344l341 344h41l-367 -370v-310zM565 759h-66l-73 138l-73 -138h-66l119 153h40z" />
    <glyph glyph-name="Ydieresis" unicode="&#x178;" horiz-adv-x="852" 
d="M441 10h-30v309l-367 371h41l341 -344l341 344h41l-367 -370v-310zM521 759h-12q-40 0 -48.5 13.5t-8.5 53.5q0 33 15.5 41t53.5 8q40 0 49 -13.5t9 -53.5q0 -29 -13 -39t-45 -10zM343 759h-12q-40 0 -49 13.5t-9 53.5q0 33 15.5 41t54.5 8q40 0 48.5 -13.5t8.5 -53.5
q0 -29 -13 -39t-44 -10z" />
    <glyph glyph-name="Zcaron" unicode="&#x17d;" horiz-adv-x="915" 
d="M849 10h-783v42l751 609h-751v29h783v-42l-752 -609h752v-29zM477 759h-40q-59 77 -119 153h66l73 -138l74 138h65z" />
    <glyph glyph-name="circumflex" unicode="&#x2c6;" horiz-adv-x="346" 
d="M312 589h-65l-74 138l-73 -138h-66l120 153h39z" />
    <glyph glyph-name="caron" unicode="&#x2c7;" horiz-adv-x="280" 
d="M160 578h-39l-120 153h66l73 -138l74 138h65z" />
    <glyph glyph-name="ring" unicode="&#x2da;" horiz-adv-x="297" 
d="M156 542h-15q-44 0 -69 19q-25 22 -25 65v23q0 43 25 65q25 18 69 18h15q43 0 69 -18q24 -22 24 -65v-23q0 -43 -24 -65q-26 -19 -69 -19zM156 564q40 0 55 14q16 9 16 48v23q0 38 -16 48q-17 13 -70 13q-40 0 -55 -13q-17 -10 -17 -48v-23q0 -38 17 -48q16 -14 70 -14z
" />
    <glyph glyph-name="ogonek" unicode="&#x2db;" horiz-adv-x="74" 
d="M80 -178h-37q-36 0 -58.5 16.5t-22.5 60.5q0 28 12.5 50.5t25.5 39.5q16 20 16 30v3l25 -20l21 16q0 -1 -4 -5q-8 -6 -21.5 -21t-25 -35.5t-11.5 -44.5q0 -25 13.5 -41t39.5 -16h27v-33z" />
    <glyph glyph-name="tilde" unicode="&#x2dc;" horiz-adv-x="392" 
d="M261 691q-32 0 -65 33q-20 22 -34.5 34t-31.5 12q-17 -1 -33.5 -17t-38.5 -59l-21 11q22 45 42.5 67t50.5 22q33 0 65 -34q21 -22 35.5 -33.5t31.5 -11.5q16 1 33.5 16t37.5 60l22 -11q-22 -46 -43.5 -67.5t-50.5 -21.5z" />
    <glyph glyph-name="quoteleft" unicode="&#x2018;" horiz-adv-x="146" 
d="M101 558h-8l-72 178h49z" />
    <glyph glyph-name="quoteright" unicode="&#x2019;" horiz-adv-x="147" 
d="M53 558h-9l32 178h49z" />
    <glyph glyph-name="quotesinglbase" unicode="&#x201a;" horiz-adv-x="147" 
d="M35 -92h-9l32 178h49z" />
    <glyph glyph-name="quotedblleft" unicode="&#x201c;" horiz-adv-x="249" 
d="M101 558h-9l-71 178h49zM204 558h-9l-72 178h50z" />
    <glyph glyph-name="quotedblright" unicode="&#x201d;" horiz-adv-x="249" 
d="M53 558h-9l32 178h49zM156 558h-9l31 178h49z" />
    <glyph glyph-name="quotedblbase" unicode="&#x201e;" horiz-adv-x="249" 
d="M53 8h-9l32 178h49zM156 8h-9l31 178h49z" />
    <glyph glyph-name="lira" unicode="&#x20a4;" horiz-adv-x="1001" 
d="M908 10h-720v29h49v161h-167v30h167v118h-167v30h167v97q0 78 38.5 125t110 68.5t171.5 21.5h55q96 0 168 -14t112.5 -45.5t40.5 -86.5h-30q0 62 -76 89t-215 27h-55q-141 0 -216 -42.5t-75 -142.5v-97h475v-30h-475v-118h475v-30h-475v-161h642v-29z" />
    <glyph glyph-name="Euro" unicode="&#x20ac;" horiz-adv-x="1042" 
d="M715 -4q-117 0 -195 11q-205 29 -226 254h-224v29h222v119h-222v30h224q10 99 53.5 157.5t120 83t184.5 24.5h63q184 0 262 -46l-14 -26q-46 26 -118.5 34t-192.5 8q-152 0 -233.5 -53t-95.5 -182h418v-30h-419v-119h419v-29h-418q13 -128 94 -182t235 -54q120 0 192.5 8
t118.5 35l14 -26q-78 -46 -262 -46z" />
    <glyph glyph-name="uni2116" unicode="&#x2116;" horiz-adv-x="1000" 
 />
    <glyph glyph-name="trademark" unicode="&#x2122;" horiz-adv-x="815" 
d="M190 476h-19v250h-145v19h308v-19h-144v-250zM562 476h-22l-141 235v-234h-19v268h21l150 -250l150 250h21v-268h-19v234z" />
    <glyph glyph-name="lessequal" unicode="&#x2264;" horiz-adv-x="648" 
d="M570 78l-508 169v32l508 170l10 -28l-474 -158l474 -157zM585 -2h-523v29h523v-29z" />
    <glyph glyph-name="greaterequal" unicode="&#x2265;" horiz-adv-x="648" 
d="M77 78l-9 28l473 157l-473 158l9 28l508 -170v-32zM585 -2h-523v29h523v-29z" />
    <glyph glyph-name="uni0009" horiz-adv-x="508" 
 />
    </font>
</defs>
</svg>
